<svg width="1229" height="360" viewBox="0 0 1229 360" fill="none" xmlns="http://www.w3.org/2000/svg">
<rect width="1229" height="360" fill="#E5E5E5"/>
<g id="body">
<path id="Vector" d="M27.5818 277.008H4.03979V289.09L27.5818 289.507V277.007V277.008Z" stroke="black" stroke-width="0.0625" stroke-miterlimit="10" stroke-linejoin="round"/>
<path id="Vector_2" d="M1226.32 256.338C1225.9 249.67 1225.49 243.004 1224.86 237.657C1224.24 232.31 1223.4 228.282 1221.18 224.811C1218.96 221.34 1215.35 218.421 1210.42 215.018C1205.48 211.616 1199.24 207.727 1191.18 203.352C1183.12 198.977 1173.26 194.116 1165.07 190.436C1156.87 186.755 1150.35 184.255 1143.97 181.554C1137.6 178.852 1131.39 175.95 1125.17 173.048L1145.49 215.548L1172.57 256.798L1220.49 250.548L1226.32 256.339L1226.32 256.338Z" fill="#2B2A2F" stroke="black" stroke-width="0.0625" stroke-miterlimit="10" stroke-linejoin="round"/>
<path id="Vector_3" d="M392.538 322.428L160.538 317.428L159.538 236.428L203.538 168.428L264.538 148.428L352.538 160.428L423.538 210.428L414.538 271.428L392.538 322.428Z" fill="#32353E"/>
<path id="Vector_4" d="M1075.52 326.428L849.518 327.428L846.518 241.428L913.518 169.428L1023.52 165.428L1073.52 194.428L1088.52 279.428L1075.52 326.428Z" fill="#32353E"/>
<path id="Vector_5" d="M31.9568 288.888L4.03284 288.928L4.03884 302.638L25.4978 302.22L31.9566 288.888L31.9568 288.888Z" fill="#2B2A2F" stroke="black" stroke-width="0.0625" stroke-miterlimit="10" stroke-linejoin="round"/>
<path id="Vector_6" d="M1079.72 143.008C1065.69 139.953 1051.66 136.897 1036.8 134.258C1021.94 131.619 1006.25 129.397 991.524 127.66C976.802 125.924 963.052 124.674 948.19 123.494C933.328 122.314 917.356 121.203 906.801 120.508C896.245 119.813 891.106 119.535 887.565 119.258C884.024 118.98 882.079 118.703 880.481 117.939C878.883 117.174 876.731 116.73 875.758 116.175C874.787 115.62 873.988 115.845 869.613 116.332C865.238 116.818 858.19 116.758 848.815 117.522C839.44 118.285 828.744 118.98 820.412 119.397C812.08 119.813 806.107 119.953 802.565 119.744C799.023 119.535 797.912 118.98 790.69 114.049C783.467 109.118 770.133 99.813 753.537 88.703C736.941 77.593 717.078 64.674 699.995 53.494C682.912 42.314 668.607 32.869 661.107 27.592C653.607 22.315 652.913 21.2032 650.482 20.022C648.05 18.8408 643.884 17.592 635.065 15.5782C626.245 13.5632 612.774 10.7857 597.774 8.98072C582.774 7.17452 566.246 6.34192 550.344 6.34192C534.442 6.34192 519.164 7.17442 507.566 7.86942C495.968 8.56442 488.052 9.11942 476.385 10.5782C464.718 12.037 449.303 14.397 431.246 17.4532C413.189 20.5094 392.496 24.2582 381.038 26.4807C369.58 28.7032 367.357 29.3969 365.829 30.1607C364.301 30.9245 363.467 31.7582 362.009 32.7995C360.55 33.8408 358.467 35.092 353.745 36.897C349.022 38.702 341.662 41.0632 332.565 43.7032C323.468 46.3432 312.634 49.2582 303.606 51.6882C294.578 54.1182 287.356 56.0632 267.426 62.1742C247.496 68.2852 214.856 78.5642 196.87 84.3282C178.884 90.0922 175.551 91.342 173.538 91.8282C171.525 92.3144 170.829 92.0357 170.274 91.7582L168.884 90.9945C168.468 90.7857 168.051 90.647 167.218 90.7857C166.384 90.9245 165.134 91.342 163.468 91.5495C161.802 91.757 159.718 91.7582 158.259 91.4807C156.8 91.2031 155.968 90.6469 154.44 90.8557C152.913 91.0644 150.69 92.0357 147.634 93.2857C144.579 94.5357 140.69 96.0645 135.343 97.7995C129.995 99.5357 123.191 101.481 114.927 103.564C106.663 105.648 96.9409 107.869 90.8979 109.258C84.8549 110.647 82.4954 111.202 77.0789 113.563C71.6624 115.924 63.1899 120.092 56.1069 126.063C49.0239 132.034 43.3289 139.813 37.7049 147.244C32.0809 154.675 26.5249 161.758 22.2889 168.008C18.0529 174.258 15.1351 179.674 12.1499 184.814C9.16471 189.954 6.10741 194.814 4.16371 198.564C2.21871 202.314 1.38491 204.953 1.10751 208.355C0.830113 211.758 1.10751 215.924 1.73251 220.23C2.35751 224.535 3.33001 228.98 4.30251 232.938C5.27501 236.896 6.24631 240.37 7.08001 243.842C7.91371 247.315 8.60751 250.786 9.09381 254.536C9.58011 258.287 9.85756 262.314 10.3438 266.481C10.8301 270.649 11.525 274.954 12.4963 278.425C13.4676 281.897 14.7188 284.537 16.6638 286.273C18.6076 288.009 21.2463 288.843 24.025 289.12C26.8037 289.398 29.7188 289.12 47.427 289.884C65.1352 290.648 97.635 292.454 114.58 293.564C131.525 294.674 132.914 295.093 134.094 295.648C135.274 296.203 136.247 296.898 137.358 298.287C138.469 299.676 139.719 301.759 140.414 303.912C141.109 306.064 141.247 308.287 140.9 310.301C140.553 312.316 139.719 314.121 138.885 315.579C138.051 317.038 137.219 318.148 136.385 319.259H167.219L174.719 309.259C174.303 303.009 173.886 296.759 173.817 289.607C173.748 282.455 174.026 274.398 174.789 266.689C175.553 258.98 176.803 251.62 178.678 244.954C180.553 238.288 183.053 232.314 186.664 225.718C190.275 219.122 194.997 211.898 200.275 205.648C205.554 199.398 211.385 194.12 217.983 189.537C224.581 184.954 231.942 181.066 239.997 177.801C248.053 174.538 256.803 171.899 266.108 170.58C275.414 169.26 285.276 169.26 294.65 170.301C304.024 171.343 312.914 173.426 320.83 176.205C328.746 178.984 335.691 182.455 342.566 187.176C349.441 191.899 356.246 197.871 361.664 203.635C367.082 209.399 371.108 214.955 374.442 220.719C377.776 226.483 380.415 232.455 382.428 237.871C384.442 243.287 385.831 248.149 386.665 251.969C387.498 255.789 387.776 258.565 388.053 261.344C399.997 262.316 411.942 263.288 424.581 264.19C437.22 265.093 450.553 265.927 461.942 267.177C473.331 268.427 482.776 270.094 492.081 272.038C501.386 273.983 510.553 276.205 519.859 278.149C529.166 280.094 538.609 281.76 551.665 283.149C564.721 284.538 581.386 285.649 624.997 286.205C668.608 286.761 739.167 286.76 782.497 286.899C825.827 287.038 841.942 287.317 858.053 287.594C857.886 283.538 857.72 279.483 858.053 274.538C858.386 269.594 859.22 263.76 860.636 257.927C862.052 252.094 864.053 246.261 866.136 241.177C868.218 236.093 870.386 231.761 873.803 226.427C877.221 221.093 881.886 214.761 887.135 209.011C892.385 203.261 898.219 198.095 903.303 194.177C908.387 190.259 912.72 187.595 917.719 185.177C922.719 182.76 928.385 180.595 936.219 178.677C944.053 176.76 954.053 175.095 964.303 174.761C974.553 174.427 985.053 175.427 994.303 177.427C1003.55 179.427 1011.55 182.427 1018.8 185.845C1026.05 189.262 1032.55 193.095 1038.14 197.595C1043.72 202.095 1048.39 207.261 1052.64 213.011C1056.89 218.76 1060.72 225.095 1063.97 232.177C1067.22 239.259 1069.89 247.095 1071.8 255.011C1073.72 262.927 1074.89 270.927 1075.47 278.095C1076.05 285.263 1076.05 291.595 1075.64 298.177C1075.22 304.759 1074.39 311.595 1072.89 318.345C1071.39 325.095 1069.22 331.761 1067.05 338.427C1078.22 337.427 1089.39 336.427 1095.55 335.594C1101.72 334.762 1102.89 334.094 1104.55 333.76C1106.22 333.426 1108.39 333.426 1120.72 332.51C1133.05 331.594 1155.55 329.76 1170.64 328.426C1185.72 327.093 1193.39 326.26 1198.97 325.926C1204.55 325.593 1208.05 325.76 1211.47 325.51C1214.89 325.26 1218.22 324.594 1221.14 323.01C1224.05 321.426 1226.55 318.926 1227.64 317.594C1228.72 316.262 1228.39 316.094 1227.47 314.594C1226.55 313.094 1225.05 310.26 1224.3 308.51C1223.55 306.76 1223.55 306.094 1224.05 300.594C1224.55 295.094 1225.55 284.76 1226.05 276.01C1226.55 267.26 1226.55 260.094 1226.3 254.176C1226.05 248.258 1225.55 243.594 1224.39 240.094C1223.22 236.594 1221.39 234.26 1218.97 232.01C1216.55 229.76 1213.55 227.594 1210.3 225.926C1207.05 224.259 1203.55 223.094 1198.64 221.344C1193.72 219.594 1187.39 217.26 1180.55 214.26C1173.72 211.26 1166.39 207.594 1158.39 203.094C1150.39 198.594 1141.72 193.26 1133.72 187.844C1125.72 182.428 1118.39 176.926 1111.72 171.76C1105.05 166.594 1099.05 161.76 1094.22 157.594C1089.39 153.428 1085.72 149.927 1083.5 147.608C1081.28 145.289 1080.5 144.149 1079.72 143.01L1079.72 143.008ZM275.548 99.2578C272.214 98.1466 268.88 97.0353 266.937 95.7853C264.992 94.5353 264.437 93.1465 264.437 91.7578C264.437 90.3691 264.992 88.9803 266.242 87.174C267.492 85.369 269.437 83.1465 272.909 80.5078C276.382 77.8691 281.38 74.814 291.52 70.5078C301.659 66.2028 316.936 60.6466 340.13 53.7028C363.325 46.7578 394.436 38.4238 420.686 32.5918C446.936 26.7598 468.325 23.4243 488.464 21.2028C508.603 18.9813 527.492 17.869 544.436 17.5916C561.38 17.3142 576.38 17.8691 588.325 18.8416C600.27 19.8141 609.159 21.2028 617.491 23.4241C625.823 25.6454 633.602 28.7029 644.02 34.2581C654.436 39.8131 667.491 47.8691 682.63 57.8691C697.769 67.8691 714.991 79.8141 730.27 90.5081C745.548 101.203 758.88 110.647 772.214 120.092C760.27 120.092 748.325 120.092 714.436 119.258C680.547 118.425 624.714 116.758 576.516 115.786C528.321 114.813 487.766 114.536 451.516 113.563C415.266 112.591 383.321 110.925 357.626 109.258C331.932 107.592 312.487 105.925 299.848 104.258C287.209 102.592 281.376 100.925 275.543 99.2583" fill="url(#paint0_linear)"/>
<path id="Vector_7" d="M1079.72 143.008C1065.69 139.953 1051.66 136.897 1036.8 134.258C1021.94 131.619 1006.25 129.397 991.524 127.66C976.802 125.924 963.052 124.674 948.19 123.494C933.328 122.314 917.356 121.203 906.801 120.508C896.245 119.813 891.106 119.535 887.565 119.258C884.024 118.98 882.079 118.703 880.481 117.939C878.883 117.174 876.731 116.73 875.758 116.175C874.787 115.62 873.988 115.845 869.613 116.332C865.238 116.818 858.19 116.758 848.815 117.522C839.44 118.285 828.744 118.98 820.412 119.397C812.08 119.813 806.107 119.953 802.565 119.744C799.023 119.535 797.912 118.98 790.69 114.049C783.467 109.118 770.133 99.813 753.537 88.703C736.941 77.593 717.078 64.674 699.995 53.494C682.912 42.314 668.607 32.869 661.107 27.592C653.607 22.315 652.913 21.2032 650.482 20.022C648.05 18.8408 643.884 17.592 635.065 15.5782C626.245 13.5632 612.774 10.7857 597.774 8.98072C582.774 7.17452 566.246 6.34192 550.344 6.34192C534.442 6.34192 519.164 7.17442 507.566 7.86942C495.968 8.56442 488.052 9.11942 476.385 10.5782C464.718 12.037 449.303 14.397 431.246 17.4532C413.189 20.5094 392.496 24.2582 381.038 26.4807C369.58 28.7032 367.357 29.3969 365.829 30.1607C364.301 30.9245 363.467 31.7582 362.009 32.7995C360.55 33.8408 358.467 35.092 353.745 36.897C349.022 38.702 341.662 41.0632 332.565 43.7032C323.468 46.3432 312.634 49.2582 303.606 51.6882C294.578 54.1182 287.356 56.0632 267.426 62.1742C247.496 68.2852 214.856 78.5642 196.87 84.3282C178.884 90.0922 175.551 91.342 173.538 91.8282C171.525 92.3144 170.829 92.0357 170.274 91.7582L168.884 90.9945C168.468 90.7857 168.051 90.647 167.218 90.7857C166.384 90.9245 165.134 91.342 163.468 91.5495C161.802 91.757 159.718 91.7582 158.259 91.4807C156.8 91.2031 155.968 90.6469 154.44 90.8557C152.913 91.0644 150.69 92.0357 147.634 93.2857C144.579 94.5357 140.69 96.0645 135.343 97.7995C129.995 99.5357 123.191 101.481 114.927 103.564C106.663 105.648 96.9409 107.869 90.8979 109.258C84.8549 110.647 82.4954 111.202 77.0789 113.563C71.6624 115.924 63.1899 120.092 56.1069 126.063C49.0239 132.034 43.3289 139.813 37.7049 147.244C32.0809 154.675 26.5249 161.758 22.2889 168.008C18.0529 174.258 15.1351 179.674 12.1499 184.814C9.16471 189.954 6.10741 194.814 4.16371 198.564C2.21871 202.314 1.38491 204.953 1.10751 208.355C0.830113 211.758 1.10751 215.924 1.73251 220.23C2.35751 224.535 3.33001 228.98 4.30251 232.938C5.27501 236.896 6.24631 240.37 7.08001 243.842C7.91371 247.315 8.60751 250.786 9.09381 254.536C9.58011 258.287 9.85756 262.314 10.3438 266.481C10.8301 270.649 11.525 274.954 12.4963 278.425C13.4676 281.897 14.7188 284.537 16.6638 286.273C18.6076 288.009 21.2463 288.843 24.025 289.12C26.8037 289.398 29.7188 289.12 47.427 289.884C65.1352 290.648 97.635 292.454 114.58 293.564C131.525 294.674 132.914 295.093 134.094 295.648C135.274 296.203 136.247 296.898 137.358 298.287C138.469 299.676 139.719 301.759 140.414 303.912C141.109 306.064 141.247 308.287 140.9 310.301C140.553 312.316 139.719 314.121 138.885 315.579C138.051 317.038 137.219 318.148 136.385 319.259H167.219L174.719 309.259C174.303 303.009 173.886 296.759 173.817 289.607C173.748 282.455 174.026 274.398 174.789 266.689C175.553 258.98 176.803 251.62 178.678 244.954C180.553 238.288 183.053 232.314 186.664 225.718C190.275 219.122 194.997 211.898 200.275 205.648C205.554 199.398 211.385 194.12 217.983 189.537C224.581 184.954 231.942 181.066 239.997 177.801C248.053 174.538 256.803 171.899 266.108 170.58C275.414 169.26 285.276 169.26 294.65 170.301C304.024 171.343 312.914 173.426 320.83 176.205C328.746 178.984 335.691 182.455 342.566 187.176C349.441 191.899 356.246 197.871 361.664 203.635C367.082 209.399 371.108 214.955 374.442 220.719C377.776 226.483 380.415 232.455 382.428 237.871C384.442 243.287 385.831 248.149 386.665 251.969C387.498 255.789 387.776 258.565 388.053 261.344C399.997 262.316 411.942 263.288 424.581 264.19C437.22 265.093 450.553 265.927 461.942 267.177C473.331 268.427 482.776 270.094 492.081 272.038C501.386 273.983 510.553 276.205 519.859 278.149C529.166 280.094 538.609 281.76 551.665 283.149C564.721 284.538 581.386 285.649 624.997 286.205C668.608 286.761 739.167 286.76 782.497 286.899C825.827 287.038 841.942 287.317 858.053 287.594C857.886 283.538 857.72 279.483 858.053 274.538C858.386 269.594 859.22 263.76 860.636 257.927C862.052 252.094 864.053 246.261 866.136 241.177C868.218 236.093 870.386 231.761 873.803 226.427C877.221 221.093 881.886 214.761 887.135 209.011C892.385 203.261 898.219 198.095 903.303 194.177C908.387 190.259 912.72 187.595 917.719 185.177C922.719 182.76 928.385 180.595 936.219 178.677C944.053 176.76 954.053 175.095 964.303 174.761C974.553 174.427 985.053 175.427 994.303 177.427C1003.55 179.427 1011.55 182.427 1018.8 185.845C1026.05 189.262 1032.55 193.095 1038.14 197.595C1043.72 202.095 1048.39 207.261 1052.64 213.011C1056.89 218.76 1060.72 225.095 1063.97 232.177C1067.22 239.259 1069.89 247.095 1071.8 255.011C1073.72 262.927 1074.89 270.927 1075.47 278.095C1076.05 285.263 1076.05 291.595 1075.64 298.177C1075.22 304.759 1074.39 311.595 1072.89 318.345C1071.39 325.095 1069.22 331.761 1067.05 338.427C1078.22 337.427 1089.39 336.427 1095.55 335.594C1101.72 334.762 1102.89 334.094 1104.55 333.76C1106.22 333.426 1108.39 333.426 1120.72 332.51C1133.05 331.594 1155.55 329.76 1170.64 328.426C1185.72 327.093 1193.39 326.26 1198.97 325.926C1204.55 325.593 1208.05 325.76 1211.47 325.51C1214.89 325.26 1218.22 324.594 1221.14 323.01C1224.05 321.426 1226.55 318.926 1227.64 317.594C1228.72 316.262 1228.39 316.094 1227.47 314.594C1226.55 313.094 1225.05 310.26 1224.3 308.51C1223.55 306.76 1223.55 306.094 1224.05 300.594C1224.55 295.094 1225.55 284.76 1226.05 276.01C1226.55 267.26 1226.55 260.094 1226.3 254.176C1226.05 248.258 1225.55 243.594 1224.39 240.094C1223.22 236.594 1221.39 234.26 1218.97 232.01C1216.55 229.76 1213.55 227.594 1210.3 225.926C1207.05 224.259 1203.55 223.094 1198.64 221.344C1193.72 219.594 1187.39 217.26 1180.55 214.26C1173.72 211.26 1166.39 207.594 1158.39 203.094C1150.39 198.594 1141.72 193.26 1133.72 187.844C1125.72 182.428 1118.39 176.926 1111.72 171.76C1105.05 166.594 1099.05 161.76 1094.22 157.594C1089.39 153.428 1085.72 149.927 1083.5 147.608C1081.28 145.289 1080.5 144.149 1079.72 143.01L1079.72 143.008ZM275.548 99.2578C272.214 98.1466 268.88 97.0353 266.937 95.7853C264.992 94.5353 264.437 93.1465 264.437 91.7578C264.437 90.3691 264.992 88.9803 266.242 87.174C267.492 85.369 269.437 83.1465 272.909 80.5078C276.382 77.8691 281.38 74.814 291.52 70.5078C301.659 66.2028 316.936 60.6466 340.13 53.7028C363.325 46.7578 394.436 38.4238 420.686 32.5918C446.936 26.7598 468.325 23.4243 488.464 21.2028C508.603 18.9813 527.492 17.869 544.436 17.5916C561.38 17.3142 576.38 17.8691 588.325 18.8416C600.27 19.8141 609.159 21.2028 617.491 23.4241C625.823 25.6454 633.602 28.7029 644.02 34.2581C654.436 39.8131 667.491 47.8691 682.63 57.8691C697.769 67.8691 714.991 79.8141 730.27 90.5081C745.548 101.203 758.88 110.647 772.214 120.092C760.27 120.092 748.325 120.092 714.436 119.258C680.547 118.425 624.714 116.758 576.516 115.786C528.321 114.813 487.766 114.536 451.516 113.563C415.266 112.591 383.321 110.925 357.626 109.258C331.932 107.592 312.487 105.925 299.848 104.258C287.209 102.592 281.376 100.925 275.543 99.2583L275.548 99.2578Z" stroke="black" stroke-width="0.05" stroke-miterlimit="10" stroke-linejoin="round"/>
<path id="Vector_8" d="M64.9768 262.698C68.9356 262.524 76.2968 262.455 83.7618 262.629C91.2268 262.803 98.7968 263.219 106.053 263.566C113.309 263.914 120.255 264.191 124.838 264.608C129.421 265.024 131.644 265.58 133.414 266.239C135.184 266.898 136.505 267.663 137.685 268.739C138.865 269.815 139.908 271.205 140.81 272.768C141.713 274.33 142.476 276.066 142.963 278.045C143.449 280.024 143.658 282.246 143.449 284.191C143.24 286.135 142.615 287.801 141.331 289.399C140.048 290.996 138.101 292.524 136.123 293.426C134.144 294.329 132.13 294.608 126.435 294.573C120.74 294.538 111.365 294.19 100.011 293.6C88.6572 293.01 75.3232 292.176 68.1012 291.518C60.8792 290.859 59.7687 290.371 58.5874 289.295C57.4061 288.219 56.1574 286.551 55.1149 284.92C54.0724 283.289 53.2399 281.69 52.7887 279.885C52.3375 278.08 52.2687 276.066 52.4424 274.573C52.6162 273.079 53.0324 272.108 53.8649 270.788C54.6974 269.468 55.9487 267.801 57.0249 266.518C58.1011 265.234 59.0049 264.33 59.7337 263.739C60.4625 263.147 61.0187 262.871 64.9762 262.698L64.9768 262.698Z" fill="#2B2A2F" stroke="black" stroke-width="0.0625" stroke-miterlimit="10" stroke-linejoin="round"/>
<path id="Vector_9" d="M386.088 264.818C385.533 268.15 385.533 274.957 384.977 283.428C384.42 291.899 383.31 302.039 382.547 308.568C381.783 315.097 381.365 318.012 381.297 320.998C381.228 323.984 381.505 327.039 381.922 328.707C382.338 330.374 382.894 330.65 402.616 330.443C422.337 330.235 461.227 329.539 487.895 328.914C514.563 328.289 529.006 327.734 551.436 327.248C573.866 326.762 604.284 326.345 628.52 326.345C652.756 326.345 670.811 326.762 689.978 327.456C709.146 328.15 729.423 329.123 748.173 330.095C766.923 331.068 784.145 332.039 798.589 332.595C813.034 333.15 824.7 333.289 832.895 333.498C841.088 333.707 845.811 333.984 848.936 333.845C852.061 333.707 853.588 333.15 854.838 331.97C856.088 330.79 857.061 328.984 857.477 321.552C857.893 314.12 857.756 301.067 857.547 294.4C857.338 287.733 857.061 287.456 856.506 287.318C855.949 287.178 855.116 287.178 847.547 287.039C839.978 286.9 825.672 286.623 818.172 286.685C810.672 286.748 809.977 287.152 808.463 287.269C806.949 287.387 804.616 287.22 766.283 287.089C727.951 286.958 653.613 286.859 612.493 286.463C571.368 286.068 563.452 285.373 553.591 283.914C543.73 282.455 531.925 280.234 518.8 277.619C505.675 275.005 491.23 271.998 479.216 269.921C467.202 267.845 457.618 266.7 447.202 265.773C436.786 264.845 425.536 264.136 417.15 263.564C408.765 262.991 403.244 262.554 399.009 262.276C394.773 261.998 391.822 261.88 389.79 261.751C387.759 261.623 386.648 261.484 386.091 264.818" fill="url(#paint1_linear)"/>
<path id="Vector_10" d="M386.088 264.818C385.533 268.15 385.533 274.957 384.977 283.428C384.42 291.899 383.31 302.039 382.547 308.568C381.783 315.097 381.365 318.012 381.297 320.998C381.228 323.984 381.505 327.039 381.922 328.707C382.338 330.374 382.894 330.65 402.616 330.443C422.337 330.235 461.227 329.539 487.895 328.914C514.563 328.289 529.006 327.734 551.436 327.248C573.866 326.762 604.284 326.345 628.52 326.345C652.756 326.345 670.811 326.762 689.978 327.456C709.146 328.15 729.423 329.123 748.173 330.095C766.923 331.068 784.145 332.039 798.589 332.595C813.034 333.15 824.7 333.289 832.895 333.498C841.088 333.707 845.811 333.984 848.936 333.845C852.061 333.707 853.588 333.15 854.838 331.97C856.088 330.79 857.061 328.984 857.477 321.552C857.893 314.12 857.756 301.067 857.547 294.4C857.338 287.733 857.061 287.456 856.506 287.318C855.949 287.178 855.116 287.178 847.547 287.039C839.978 286.9 825.672 286.623 818.172 286.685C810.672 286.748 809.977 287.152 808.463 287.269C806.949 287.387 804.616 287.22 766.283 287.089C727.951 286.958 653.613 286.859 612.493 286.463C571.368 286.068 563.452 285.373 553.591 283.914C543.73 282.455 531.925 280.234 518.8 277.619C505.675 275.005 491.23 271.998 479.216 269.921C467.202 267.845 457.618 266.7 447.202 265.773C436.786 264.845 425.536 264.136 417.15 263.564C408.765 262.991 403.244 262.554 399.009 262.276C394.773 261.998 391.822 261.88 389.79 261.751C387.759 261.623 386.648 261.484 386.091 264.818L386.088 264.818Z" stroke="black" stroke-width="0.0625" stroke-miterlimit="10" stroke-linejoin="round"/>
<path id="Vector_11" d="M275.538 99.2578C281.37 100.924 287.204 102.592 299.843 104.258C312.482 105.924 331.927 107.592 357.621 109.258C383.316 110.924 415.261 112.592 451.511 113.563C487.761 114.534 528.316 114.813 576.511 115.785C624.706 116.758 680.541 118.424 714.431 119.258C748.321 120.091 760.265 120.092 772.209 120.092C758.875 110.647 745.543 101.203 730.265 90.5075C714.987 79.8125 697.765 67.8685 682.625 57.8685C667.485 47.8685 654.431 39.8125 644.015 34.2575C633.599 28.7025 625.82 25.6463 617.486 23.4235C609.152 21.2007 600.265 19.8123 588.32 18.841C576.375 17.8697 561.375 17.3122 544.431 17.591C527.486 17.8685 508.597 18.9798 488.459 21.2022C468.321 23.4246 446.931 26.7572 420.681 32.5912C394.431 38.4252 363.32 46.7572 340.125 53.7022C316.931 60.646 301.654 66.2022 291.515 70.5072C281.376 74.8122 276.375 77.8684 272.904 80.5072C269.433 83.146 267.486 85.3684 266.236 87.1734C264.986 88.9796 264.431 90.3684 264.431 91.7572C264.431 93.146 264.986 94.5347 266.931 95.7847C268.876 97.0347 272.209 98.1459 275.543 99.2572L275.538 99.2578Z" fill="#5C6D7D" stroke="black" stroke-width="3.75" stroke-miterlimit="10" stroke-linejoin="round"/>
<path id="Vector_12" d="M685.538 100.508C672.482 91.4803 659.427 82.4528 646.51 74.3278C633.593 66.2028 620.815 58.9798 610.538 54.9528C600.261 50.9258 592.482 50.0916 583.454 49.119C574.426 48.1464 564.149 47.0352 554.01 46.7578C543.871 46.4804 533.87 47.0353 519.288 48.1466C504.706 49.2579 485.538 50.9241 475.399 52.1741C465.26 53.4241 464.149 54.2579 463.038 55.0916C465.538 55.9241 468.038 56.7578 469.565 57.4528C471.093 58.1465 471.649 58.7028 473.038 63.1466C474.427 67.5916 476.649 75.9246 479.247 84.7416C481.844 93.5586 484.82 102.858 487.794 112.158L679.464 116.324L685.54 100.508" fill="#EAE7EA"/>
<path id="Vector_13" d="M845.328 117.738C839.512 118.18 833.697 118.623 826.336 119.05C818.975 119.478 810.068 119.888 804.47 119.545C798.872 119.203 796.579 118.105 783.766 109.564C770.953 101.023 747.62 85.0351 725.588 70.2621C703.556 55.4891 682.828 41.9261 671.266 34.3111C659.704 26.6973 657.307 25.0299 655.901 23.7911C654.495 22.5523 654.078 21.7386 653.87 20.7061C653.661 19.6736 653.662 18.4249 654.287 17.5923C654.912 16.7597 656.162 16.3423 657.62 16.0298C659.077 15.7173 660.745 15.5085 662.1 15.6123C663.453 15.7173 664.495 16.1335 678.038 23.4248C691.581 30.716 717.62 44.8838 747.587 61.7488C777.554 78.6138 811.441 98.1768 845.329 117.739L845.328 117.738Z" fill="#CFD0D3" stroke="black" stroke-width="0.0625" stroke-miterlimit="10" stroke-linejoin="round"/>
<path id="Vector_14" d="M664.968 15.6748C654.988 12.7573 645.009 9.84097 632.519 7.46597C620.029 5.09097 605.03 3.25717 590.53 2.17347C576.03 1.08977 562.03 0.75727 545.946 1.17347C529.862 1.58967 511.696 2.75727 494.946 4.42347C478.196 6.08967 462.862 8.25727 448.78 10.4235C434.698 12.5897 421.862 14.7573 410.612 16.841C399.362 18.9247 389.696 20.9235 382.862 22.341C376.028 23.7585 372.03 24.591 369.78 25.1735C367.53 25.756 367.03 26.091 365.946 27.2573C364.862 28.4236 363.196 30.4235 361.53 32.4235C368.196 30.591 374.862 28.7573 386.446 26.1735C398.03 23.5897 414.53 20.2573 429.53 17.6735C444.53 15.0897 458.03 13.2573 471.112 11.7573C484.194 10.2573 496.862 9.09107 508.78 8.17347C520.698 7.25587 531.862 6.59097 541.862 6.25727C551.862 5.92357 560.696 5.92352 569.862 6.34097C579.028 6.75842 588.53 7.59097 600.946 9.50717C613.362 11.4234 628.696 14.4234 638.268 16.9347C647.84 19.446 651.654 21.4659 655.467 23.4872C654.696 21.6747 653.924 19.8622 653.967 18.696C654.009 17.5298 654.862 17.0085 655.924 16.571C656.987 16.1335 658.258 15.7785 659.799 15.6435C661.34 15.5085 663.154 15.591 664.967 15.6747" fill="url(#paint2_linear)"/>
<path id="Vector_15" d="M664.968 15.6748C654.988 12.7573 645.009 9.84097 632.519 7.46597C620.029 5.09097 605.03 3.25717 590.53 2.17347C576.03 1.08977 562.03 0.75727 545.946 1.17347C529.862 1.58967 511.696 2.75727 494.946 4.42347C478.196 6.08967 462.862 8.25727 448.78 10.4235C434.698 12.5897 421.862 14.7573 410.612 16.841C399.362 18.9247 389.696 20.9235 382.862 22.341C376.028 23.7585 372.03 24.591 369.78 25.1735C367.53 25.756 367.03 26.091 365.946 27.2573C364.862 28.4236 363.196 30.4235 361.53 32.4235C368.196 30.591 374.862 28.7573 386.446 26.1735C398.03 23.5897 414.53 20.2573 429.53 17.6735C444.53 15.0897 458.03 13.2573 471.112 11.7573C484.194 10.2573 496.862 9.09107 508.78 8.17347C520.698 7.25587 531.862 6.59097 541.862 6.25727C551.862 5.92357 560.696 5.92352 569.862 6.34097C579.028 6.75842 588.53 7.59097 600.946 9.50717C613.362 11.4234 628.696 14.4234 638.268 16.9347C647.84 19.446 651.654 21.4659 655.467 23.4872C654.696 21.6747 653.924 19.8622 653.967 18.696C654.009 17.5298 654.862 17.0085 655.924 16.571C656.987 16.1335 658.258 15.7785 659.799 15.6435C661.34 15.5085 663.154 15.591 664.967 15.6747L664.968 15.6748Z" fill="black" stroke="black" stroke-width="0.0625" stroke-miterlimit="10" stroke-linejoin="round"/>
<path id="Vector_16" d="M367.038 24.4238C360.87 25.7576 354.704 27.0913 349.538 28.3413C344.372 29.5913 340.204 30.7575 338.12 31.5075C336.036 32.2575 336.037 32.5913 336.037 33.5913C336.037 34.5913 336.037 36.2575 336.301 37.7713C336.565 39.2851 337.092 40.6475 337.62 42.0088C341.301 41.0363 344.981 40.0638 349.01 38.7788C353.039 37.4938 357.412 35.8976 360.225 34.1188C363.037 32.34 364.287 30.3826 365.162 28.7363C366.037 27.09 366.537 25.7575 367.037 24.4238" fill="url(#paint3_linear)"/>
<path id="Vector_17" d="M367.038 24.4238C360.87 25.7576 354.704 27.0913 349.538 28.3413C344.372 29.5913 340.204 30.7575 338.12 31.5075C336.036 32.2575 336.037 32.5913 336.037 33.5913C336.037 34.5913 336.037 36.2575 336.301 37.7713C336.565 39.2851 337.092 40.6475 337.62 42.0088C341.301 41.0363 344.981 40.0638 349.01 38.7788C353.039 37.4938 357.412 35.8976 360.225 34.1188C363.037 32.34 364.287 30.3826 365.162 28.7363C366.037 27.09 366.537 25.7575 367.037 24.4238H367.038Z" fill="black" stroke="black" stroke-width="0.0625" stroke-miterlimit="10" stroke-linejoin="round"/>
<path id="Vector_18" d="M218.038 73.9238L334.708 39.2578L335.542 42.749L219.042 76.924L218.042 73.924" fill="#2B2A2F"/>
<g id="Vector_19">
<path d="M265.038 52.4238C257.37 53.9238 249.704 55.4238 241.788 57.7576C233.872 60.0914 225.704 63.2576 218.288 66.3414C210.872 69.4252 204.204 72.4239 197.538 75.4239" fill="black"/>
<path d="M265.038 52.4238C257.37 53.9238 249.704 55.4238 241.788 57.7576C233.872 60.0914 225.704 63.2576 218.288 66.3414C210.872 69.4252 204.204 72.4239 197.538 75.4239" stroke="black" stroke-width="0.625" stroke-miterlimit="10" stroke-linejoin="round"/>
</g>
<g id="Vector_20">
<path d="M218.538 73.4238C225.37 70.4238 232.204 67.4238 240.12 64.4238C248.036 61.4238 257.038 58.4238 265.038 55.8413C273.038 53.2588 280.038 51.0913 286.954 49.1738C293.87 47.2563 300.704 45.5913 307.288 44.2576C313.872 42.9239 320.204 41.9238 326.538 40.9238" fill="black"/>
<path d="M218.538 73.4238C225.37 70.4238 232.204 67.4238 240.12 64.4238C248.036 61.4238 257.038 58.4238 265.038 55.8413C273.038 53.2588 280.038 51.0913 286.954 49.1738C293.87 47.2563 300.704 45.5913 307.288 44.2576C313.872 42.9239 320.204 41.9238 326.538 40.9238" stroke="black" stroke-width="0.0625" stroke-miterlimit="10" stroke-linejoin="round"/>
</g>
<path id="Vector_21" d="M279.538 50.4238L264.538 51.9238L267.038 55.4238L279.538 50.4238Z" fill="#2B2A2F"/>
<g id="Vector_22">
<path d="M197.538 75.4238L186.538 75.9238L172.538 78.4238L160.038 80.4238L157.538 79.9238L147.257 82.0176L149.288 90.9238L152.726 90.1425L153.663 93.58L158.038 92.9238L157.257 89.3613L161.007 88.4238L160.069 84.9863L163.507 83.5801L180.538 78.4239L193.038 76.9239L198.038 75.4239" fill="black"/>
<path d="M197.538 75.4238L186.538 75.9238L172.538 78.4238L160.038 80.4238L157.538 79.9238L147.257 82.0176L149.288 90.9238L152.726 90.1425L153.663 93.58L158.038 92.9238L157.257 89.3613L161.007 88.4238L160.069 84.9863L163.507 83.5801L180.538 78.4239L193.038 76.9239L198.038 75.4239" stroke="black" stroke-width="0.0625" stroke-miterlimit="10" stroke-linejoin="round"/>
</g>
<path id="Vector_23" d="M159.038 256.048C155.704 255.673 152.37 255.298 142.871 254.943C133.371 254.588 117.705 254.255 105.205 253.839C92.7048 253.423 83.3708 252.921 76.7048 252.589C70.0388 252.256 66.0388 252.089 62.8708 252.089C59.7028 252.089 57.3708 252.255 55.0383 252.839C52.7058 253.423 50.3708 254.421 48.3708 255.505C46.3708 256.589 44.7046 257.755 43.2046 259.089C41.7046 260.423 40.3708 261.921 38.7884 264.505C37.206 267.089 35.3709 270.755 33.6209 274.005C31.8709 277.255 30.2047 280.089 28.5534 282.484C26.9022 284.88 25.2646 286.839 23.6284 288.798" stroke="black" stroke-width="0.05" stroke-miterlimit="10" stroke-linejoin="round"/>
<path id="Vector_24" d="M216.538 181.048C205.163 180.798 193.788 180.548 177.267 180.11C160.746 179.673 139.08 179.046 126.683 178.526C114.286 178.006 111.163 177.589 108.038 177.171" stroke="black" stroke-width="0.05" stroke-miterlimit="10" stroke-linejoin="round"/>
<path id="Vector_25" d="M366.038 205.428C359.87 199.428 353.704 193.428 347.788 188.762C341.872 184.096 336.204 180.762 329.704 177.596C323.204 174.43 315.87 171.428 308.12 169.178C300.37 166.928 292.204 165.428 282.87 165.346C273.536 165.263 263.038 166.596 252.788 168.928C242.538 171.261 232.538 174.596 224.37 178.096C216.202 181.596 209.87 185.262 203.288 190.178C196.706 195.094 189.87 201.262 184.288 208.012C178.706 214.762 174.37 222.096 170.788 229.178C167.205 236.26 164.37 243.096 161.87 249.346C159.37 255.596 157.204 261.262 154.538 267.596C151.871 273.93 148.704 280.928 146.038 285.678C143.372 290.428 141.204 292.928 139.635 294.49C138.066 296.053 137.098 296.679 136.128 297.304" stroke="black" stroke-width="0.05" stroke-miterlimit="10" stroke-linejoin="round"/>
<path id="Vector_26" d="M125.538 153.928L34.5378 152.428L17.5378 176.928H106.538L125.538 153.928Z" fill="#F92F2C" stroke="#323535" stroke-width="0.0625" stroke-miterlimit="10" stroke-linejoin="round"/>
<path id="Vector_27" d="M120.738 120.458C117.822 119.885 112.613 119.157 106.624 118.167C100.635 117.177 93.8628 115.927 89.2278 114.938C84.5928 113.948 82.0928 113.219 79.9053 112.125C77.7178 111.032 75.8428 109.573 74.6441 108.323C73.4454 107.073 72.9253 106.032 72.5616 105.51C72.1979 104.989 71.9879 104.989 69.6441 105.25C67.3004 105.512 62.8216 106.032 58.2901 105.927C53.7586 105.822 49.1751 105.094 44.4361 103.739C39.6961 102.385 34.7999 100.407 30.2681 98.4265C25.7363 96.4465 21.5706 94.469 19.0181 93.2703C16.4656 92.0716 15.5293 91.6565 14.7481 91.6565C13.9669 91.6565 13.3419 92.0728 13.3931 93.114C13.4443 94.1553 14.1744 95.8228 16.6743 98.2702C19.1743 100.718 23.4455 103.948 27.9763 106.864C32.5071 109.78 37.2988 112.385 42.4553 114.677C47.6118 116.968 53.1333 118.948 59.0173 120.667C64.9035 122.385 71.1533 123.844 78.0793 124.729C85.0068 125.614 92.6103 125.927 99.4343 125.927C106.258 125.927 112.298 125.614 116.048 125.354C119.798 125.094 121.257 124.885 122.351 124.313C123.445 123.74 124.173 122.802 124.226 122.125C124.278 121.449 123.653 121.032 120.736 120.458L120.738 120.458Z" fill="#2B2A2F" stroke="black" stroke-width="0.0625" stroke-miterlimit="10" stroke-linejoin="round"/>
<path id="Vector_28" d="M21.4708 105.868C20.7408 106.753 20.3246 109.462 20.6896 111.805C21.0545 114.149 22.1996 116.128 23.9184 118.315C25.6372 120.503 27.9284 122.899 29.9084 125.346C31.8884 127.794 33.5534 130.294 34.8559 132.638C36.1584 134.981 37.0959 137.169 37.7209 139.253C38.3459 141.336 38.6584 143.315 40.5847 143.419C42.5122 143.524 46.0535 141.753 50.0647 139.356C54.0759 136.96 58.5535 133.94 61.5747 131.856C64.5959 129.773 66.1585 128.628 66.7309 128.055C67.3033 127.483 66.8871 127.481 64.8034 127.013C62.7196 126.544 58.9709 125.606 54.6994 124.2C50.4279 122.794 45.6369 120.919 41.1054 118.628C36.5739 116.336 32.3029 113.628 29.5434 111.596C26.7839 109.565 25.5334 108.211 24.3872 107.065C23.241 105.919 22.1997 104.981 21.471 105.868H21.4708Z" fill="#2B2A2F" stroke="black" stroke-width="0.0625" stroke-miterlimit="10" stroke-linejoin="round"/>
<path id="Vector_29" d="M125.218 153.428C126.572 151.658 127.925 149.887 128.655 148.377C129.385 146.867 129.488 145.615 129.019 144.262C128.55 142.908 127.509 141.449 125.269 140.252C123.029 139.054 119.593 138.115 115.738 137.074C111.884 136.033 107.613 134.887 103.603 133.897C99.5929 132.907 95.8429 132.074 93.1869 131.345C90.5309 130.617 88.9681 129.99 87.4057 129.365" stroke="black" stroke-width="0.0625" stroke-miterlimit="10" stroke-linejoin="round"/>
<path id="Vector_30" d="M116.788 152.798C117.204 151.757 117.62 150.715 117.777 149.778C117.933 148.84 117.829 148.007 116.839 147.069C115.849 146.131 113.975 145.09 111.632 143.684C109.288 142.278 106.475 140.506 103.454 139.1C100.433 137.694 97.2041 136.653 93.5066 135.61C89.8091 134.568 85.6416 133.528 82.1006 132.59C78.5596 131.653 75.6418 130.819 72.8818 130.194C70.1218 129.569 67.5168 129.153 64.913 128.735" stroke="black" stroke-width="0.0625" stroke-miterlimit="10" stroke-linejoin="round"/>
<path id="Vector_31" d="M500.048 289.258C494.562 287.453 486.923 285.23 476.923 282.869C466.923 280.508 454.562 278.008 444.214 276.203C433.866 274.397 425.534 273.285 420.186 272.869C414.838 272.453 412.477 272.73 410.463 273.424C408.45 274.118 406.783 275.23 405.463 276.966C404.143 278.703 403.172 281.064 402.686 283.078C402.2 285.091 402.2 286.758 402.477 289.119C402.755 291.48 403.311 294.535 404.838 297.66C406.366 300.785 408.866 303.98 411.297 306.41C413.728 308.84 416.088 310.508 420.672 311.828C425.256 313.148 432.061 314.119 439.074 314.744C446.087 315.369 453.31 315.646 462.476 315.646C471.642 315.646 482.755 315.369 500.255 314.953C517.755 314.536 541.644 313.98 565.601 313.633C589.558 313.285 613.587 313.146 637.476 313.216C661.365 313.286 685.115 313.563 711.087 314.119C737.059 314.675 765.255 315.508 787.546 315.924C809.837 316.34 826.226 316.341 837.13 316.619C848.034 316.896 853.449 317.453 855.81 317.453C858.171 317.453 857.476 316.896 849.144 316.133C840.811 315.369 824.838 314.396 796.505 313.008C768.172 311.619 727.476 309.814 684.355 307.314C641.234 304.814 595.675 301.619 566.575 299.258C537.475 296.896 524.839 295.369 516.853 293.91C508.867 292.451 505.534 291.064 500.048 289.258L500.048 289.258Z" stroke="black" stroke-width="0.0625" stroke-miterlimit="10" stroke-linejoin="round"/>
<path id="Vector_32" d="M494.838 291.478C490.394 290.228 482.338 288.283 472.894 286.062C463.449 283.839 452.615 281.339 443.588 279.533C434.56 277.728 427.338 276.617 422.269 276.13C417.2 275.644 414.283 275.783 412.199 276.687C410.115 277.59 408.865 279.255 408.101 281.478C407.338 283.7 407.06 286.478 407.476 289.047C407.893 291.615 409.005 293.978 410.185 296.2C411.365 298.423 412.615 300.505 414.213 302.519C415.81 304.533 417.755 306.478 420.81 307.867C423.865 309.255 428.033 310.089 435.394 310.644C442.755 311.2 453.31 311.478 461.852 311.547C470.394 311.615 476.922 311.478 481.713 311.13C486.504 310.783 489.561 310.228 492.547 308.769C495.534 307.31 498.45 304.95 499.908 303.075C501.366 301.2 501.366 299.812 501.297 298.353C501.228 296.894 501.088 295.367 500.602 294.325C500.116 293.284 499.283 292.728 494.838 291.478L494.838 291.478Z" stroke="black" stroke-width="0.0625" stroke-miterlimit="10" stroke-linejoin="round"/>
<path id="Vector_33" d="M485.038 289.178C482.37 288.595 479.704 288.012 477.37 287.47C475.037 286.929 473.038 286.428 471.038 285.928C464.62 284.428 458.204 282.928 452.038 281.553C445.872 280.178 439.954 278.928 434.62 277.97C429.286 277.013 424.538 276.345 420.995 276.053C417.452 275.76 415.12 275.845 413.287 276.47C411.455 277.095 410.12 278.261 409.204 279.595C408.287 280.929 407.787 282.428 407.62 284.053C407.454 285.678 407.62 287.428 407.954 289.095C408.287 290.763 408.787 292.345 409.495 294.095C410.202 295.845 411.12 297.761 412.162 299.428C413.205 301.094 414.37 302.512 414.953 303.137C415.537 303.762 415.537 303.595 415.703 303.178C415.87 302.76 416.203 302.095 416.12 301.387C416.036 300.678 415.537 299.928 414.787 298.762C414.037 297.595 413.037 296.012 412.245 294.345C411.452 292.679 410.87 290.928 410.62 289.137C410.37 287.345 410.453 285.512 410.703 283.928C410.954 282.344 411.37 281.012 412.328 280.22C413.287 279.429 414.787 279.178 417.287 279.178C419.787 279.178 423.287 279.428 427.245 279.762C431.202 280.095 435.62 280.512 440.245 281.178C444.87 281.844 449.704 282.762 454.579 283.72C459.454 284.679 464.37 285.678 469.454 286.595C474.538 287.513 479.788 288.345 485.038 289.178L485.038 289.178Z" fill="url(#paint4_linear)" stroke="black" stroke-width="0.0625" stroke-miterlimit="10" stroke-linejoin="round"/>
<path id="Vector_34" d="M442.198 132.588C441.532 130.92 440.032 128.92 436.948 127.588C433.864 126.255 429.198 125.588 423.614 125.338C418.03 125.088 411.532 125.254 405.532 125.67C399.532 126.086 394.032 126.754 389.948 128.004C385.864 129.254 383.198 131.088 381.282 133.17C379.365 135.253 378.198 137.588 377.698 140.67C377.198 143.753 377.364 147.588 378.532 152.588C379.699 157.589 381.864 163.754 384.864 170.088C387.864 176.422 391.698 182.92 395.864 188.338C400.03 193.756 404.532 198.088 409.864 201.67C415.197 205.252 421.364 208.088 427.198 210.42C433.032 212.753 438.532 214.588 443.782 215.838C449.032 217.088 454.032 217.754 457.282 217.588C460.532 217.422 462.032 216.42 463.115 214.838C464.197 213.255 464.865 211.088 464.698 209.004C464.532 206.92 463.532 204.92 461.532 201.504C459.532 198.088 456.532 193.254 453.865 187.67C451.197 182.086 448.865 175.754 446.948 170.088C445.032 164.422 443.532 159.42 442.698 155.338C441.865 151.256 441.699 148.088 441.782 145.17C441.866 142.252 442.198 139.587 442.448 137.587C442.698 135.587 442.865 134.254 442.198 132.587" fill="url(#paint5_radial)"/>
<path id="Vector_35" d="M442.198 132.588C441.532 130.92 440.032 128.92 436.948 127.588C433.864 126.255 429.198 125.588 423.614 125.338C418.03 125.088 411.532 125.254 405.532 125.67C399.532 126.086 394.032 126.754 389.948 128.004C385.864 129.254 383.198 131.088 381.282 133.17C379.365 135.253 378.198 137.588 377.698 140.67C377.198 143.753 377.364 147.588 378.532 152.588C379.699 157.589 381.864 163.754 384.864 170.088C387.864 176.422 391.698 182.92 395.864 188.338C400.03 193.756 404.532 198.088 409.864 201.67C415.197 205.252 421.364 208.088 427.198 210.42C433.032 212.753 438.532 214.588 443.782 215.838C449.032 217.088 454.032 217.754 457.282 217.588C460.532 217.422 462.032 216.42 463.115 214.838C464.197 213.255 464.865 211.088 464.698 209.004C464.532 206.92 463.532 204.92 461.532 201.504C459.532 198.088 456.532 193.254 453.865 187.67C451.197 182.086 448.865 175.754 446.948 170.088C445.032 164.422 443.532 159.42 442.698 155.338C441.865 151.256 441.699 148.088 441.782 145.17C441.866 142.252 442.198 139.587 442.448 137.587C442.698 135.587 442.865 134.254 442.198 132.587L442.198 132.588Z" stroke="black" stroke-width="0.0625" stroke-miterlimit="10" stroke-linejoin="round"/>
<path id="Vector_36" d="M401.268 183.858C403.17 184.688 407.532 186.997 409.368 187.753C412.202 188.919 414.868 189.919 416.618 190.503C418.368 191.087 419.202 191.253 419.118 190.669C419.034 190.085 418.035 188.753 416.868 185.837C415.7 182.92 414.368 178.419 412.868 173.503C411.368 168.586 409.702 163.253 408.868 157.837C408.034 152.421 408.035 146.919 408.118 143.669C408.2 140.419 408.368 139.419 410.035 138.502C411.703 137.586 414.868 136.752 418.035 135.669C421.203 134.585 424.368 133.252 427.535 131.919C420.868 131.752 414.201 131.586 408.617 132.086C403.033 132.586 398.535 133.752 395.451 135.002C392.367 136.252 390.701 137.586 389.451 139.418C388.201 141.251 387.368 143.586 387.285 146.502C387.203 149.419 387.868 152.918 389.201 157.336C390.535 161.754 392.535 167.086 395.118 172.502C396.998 176.443 399.185 180.427 401.268 183.857L401.268 183.858Z" fill="#32353E" stroke="black" stroke-width="0.05" stroke-miterlimit="10" stroke-linejoin="round"/>
<path id="Vector_37" d="M459.118 210.008C458.868 209.092 457.702 207.758 454.618 206.008C451.534 204.258 446.535 202.092 440.702 199.592C434.868 197.092 428.202 194.258 423.036 192.174C417.87 190.09 414.202 188.758 410.786 187.674C407.37 186.59 404.202 185.758 404.036 186.924C403.87 188.09 406.702 191.258 410.618 194.092C414.535 196.925 419.536 199.424 425.036 201.758C430.537 204.091 436.536 206.258 441.036 207.924C445.536 209.59 448.536 210.758 451.118 211.341C453.7 211.925 455.868 211.924 457.286 211.674C458.703 211.424 459.368 210.924 459.118 210.008H459.118Z" fill="#D5D8D8" stroke="black" stroke-width="0.05" stroke-miterlimit="10" stroke-linejoin="round"/>
<path id="Vector_38" d="M401.298 183.888C402.089 185.182 402.869 186.399 403.618 187.512C406.368 191.595 408.702 194.262 412.452 196.678C416.202 199.094 421.368 201.262 427.036 203.512C432.703 205.762 438.868 208.095 443.452 209.595C448.036 211.095 451.035 211.762 453.702 211.928C456.368 212.094 458.702 211.762 459.868 211.178C461.034 210.594 461.035 209.762 460.618 208.428C460.2 207.094 459.368 205.262 457.952 202.512C456.535 199.762 454.535 196.095 452.535 192.012C450.535 187.928 448.535 183.428 446.702 179.096C444.868 174.763 443.202 170.596 441.535 166.428" stroke="black" stroke-width="0.05" stroke-miterlimit="10" stroke-linejoin="round"/>
<path id="Vector_39" d="M469.128 115.798C466.264 117.923 463.402 120.048 460.563 123.14C457.724 126.233 454.913 130.296 453.089 133.839C451.265 137.382 450.433 140.402 450.016 143.109C449.6 145.817 449.6 148.214 449.964 151.078C450.329 153.943 451.058 157.277 452.151 161.339C453.245 165.401 454.704 170.193 457.308 176.547C459.913 182.902 463.663 190.818 467.726 198.266C471.789 205.714 476.163 212.694 480.486 219.204C484.808 225.714 489.079 231.756 493.195 237.016C497.308 242.277 501.267 246.756 505.434 251.235C509.6 255.714 513.976 260.194 518.143 263.84C522.309 267.486 526.268 270.298 530.643 272.798C535.018 275.298 539.809 277.485 545.539 279.309C551.268 281.132 557.934 282.59 564.549 283.579C571.164 284.568 577.727 285.09 584.497 285.35C591.267 285.61 598.247 285.61 609.497 285.662C620.747 285.715 636.268 285.819 655.175 285.871C674.082 285.924 696.373 285.922 718.769 286.079C741.165 286.235 763.665 286.547 778.795 286.835C793.925 287.122 801.685 287.381 809.446 287.641C810.747 279.777 812.049 271.912 813.534 262.929C815.018 253.944 816.684 243.84 818.196 233.997C819.707 224.154 821.059 214.569 821.841 206.132C822.622 197.695 822.831 190.403 822.778 184.101C822.726 177.799 822.414 172.486 821.789 167.851C821.164 163.216 820.227 159.257 818.821 155.56C817.414 151.863 815.539 148.424 813.247 145.248C810.954 142.072 808.247 139.154 804.446 136.237C800.644 133.32 795.747 130.405 791.425 128.061C787.102 125.717 783.352 123.946 780.169 123.018C776.985 122.091 774.371 122.008 771.755 121.926" fill="url(#paint6_linear)"/>
<path id="Vector_40" d="M469.128 115.798C466.264 117.923 463.402 120.048 460.563 123.14C457.724 126.233 454.913 130.296 453.089 133.839C451.265 137.382 450.433 140.402 450.016 143.109C449.6 145.817 449.6 148.214 449.964 151.078C450.329 153.943 451.058 157.277 452.151 161.339C453.245 165.401 454.704 170.193 457.308 176.547C459.913 182.902 463.663 190.818 467.726 198.266C471.789 205.714 476.163 212.694 480.486 219.204C484.808 225.714 489.079 231.756 493.195 237.016C497.308 242.277 501.267 246.756 505.434 251.235C509.6 255.714 513.976 260.194 518.143 263.84C522.309 267.486 526.268 270.298 530.643 272.798C535.018 275.298 539.809 277.485 545.539 279.309C551.268 281.132 557.934 282.59 564.549 283.579C571.164 284.568 577.727 285.09 584.497 285.35C591.267 285.61 598.247 285.61 609.497 285.662C620.747 285.715 636.268 285.819 655.175 285.871C674.082 285.924 696.373 285.922 718.769 286.079C741.165 286.235 763.665 286.547 778.795 286.835C793.925 287.122 801.685 287.381 809.446 287.641C810.747 279.777 812.049 271.912 813.534 262.929C815.018 253.944 816.684 243.84 818.196 233.997C819.707 224.154 821.059 214.569 821.841 206.132C822.622 197.695 822.831 190.403 822.778 184.101C822.726 177.799 822.414 172.486 821.789 167.851C821.164 163.216 820.227 159.257 818.821 155.56C817.414 151.863 815.539 148.424 813.247 145.248C810.954 142.072 808.247 139.154 804.446 136.237C800.644 133.32 795.747 130.405 791.425 128.061C787.102 125.717 783.352 123.946 780.169 123.018C776.985 122.091 774.371 122.008 771.755 121.926" stroke="black" stroke-width="0.1625" stroke-miterlimit="10" stroke-linejoin="round"/>
<path id="Vector_41" d="M699.118 79.3408C697.202 80.5908 694.868 83.257 693.285 86.507C691.703 89.757 690.868 93.5908 690.868 97.591C690.868 101.591 691.702 105.757 693.035 108.507C694.369 111.257 696.201 112.591 698.451 113.673C700.701 114.756 703.368 115.591 707.285 115.841C711.203 116.091 716.368 115.757 720.535 115.091C724.703 114.424 727.868 113.423 730.201 112.007C732.535 110.591 734.035 108.757 735.118 106.841C736.2 104.924 736.868 102.923 737.201 101.341C737.535 99.7582 737.535 98.5907 736.951 97.0069C736.368 95.4231 735.201 93.4231 732.785 91.1731C730.369 88.9231 726.701 86.4231 722.701 84.2569C718.701 82.0907 714.367 80.2569 711.201 79.3407C708.035 78.4245 706.035 78.4232 704.285 78.3407C702.535 78.2582 701.035 78.0907 699.118 79.3407" fill="#32353E"/>
<path id="Vector_42" d="M1150.22 197.738C1149.35 197.299 1146.58 196.82 1145.53 196.175C1137.2 191.036 1129.45 184.925 1121.47 179.3C1113.48 173.675 1107.23 168.398 1100.22 162.425C1096.95 159.643 1092.91 156.496 1089.59 153.363C1085.8 149.772 1082.74 146.174 1079.18 142.799C1084.04 143.841 1088.9 144.883 1092.3 145.543C1095.7 146.203 1097.65 146.48 1100.22 148.285C1102.79 150.09 1105.98 153.424 1110.36 157.939C1114.73 162.453 1120.29 168.147 1126.12 173.91C1131.95 179.673 1138.07 185.508 1142.13 189.49C1146.19 193.472 1148.21 195.605 1150.22 197.737L1150.22 197.738Z" fill="#949791" stroke="black" stroke-width="0.0625" stroke-miterlimit="10" stroke-linejoin="round"/>
<path id="Vector_43" d="M1142.42 193.988C1139.15 195.744 1135.89 197.502 1132.8 198.727C1129.71 199.953 1126.79 200.647 1120.75 201.133C1114.71 201.619 1105.54 201.897 1096.1 201.828C1086.65 201.758 1076.93 201.342 1068.04 201.064C1059.15 200.787 1051.1 200.647 1043.04 200.508" stroke="black" stroke-width="0.0625" stroke-miterlimit="10" stroke-linejoin="round"/>
<path id="Vector_44" d="M1223.62 257.178C1220.49 255.92 1214.24 255.504 1210.98 255.713C1207.71 255.922 1207.44 256.754 1207.3 264.67C1207.16 272.587 1207.16 287.588 1207.37 295.088C1207.58 302.588 1207.99 302.588 1210.28 303.421C1212.58 304.253 1216.74 305.921 1219.31 306.796C1221.88 307.671 1222.85 307.755 1223.51 304.881C1224.17 302.006 1224.52 296.172 1225.01 288.637C1225.49 281.102 1226.12 271.867 1226.43 266.199C1226.74 260.531 1226.74 258.435 1223.62 257.178" fill="#888282"/>
<path id="Vector_45" d="M1219.21 247.73C1218.03 248.146 1215.12 247.869 1211.85 247.244C1208.59 246.619 1204.98 245.646 1199.98 245.091C1194.98 244.535 1188.59 244.396 1184.49 244.049C1180.39 243.701 1178.59 243.146 1176.44 242.035C1174.28 240.924 1171.78 239.257 1169.63 237.035C1167.48 234.812 1165.67 232.035 1164.7 229.952C1163.73 227.87 1163.59 226.48 1164.07 225.577C1164.56 224.675 1165.67 224.257 1171.23 224.189C1176.78 224.119 1186.78 224.396 1193.73 224.814C1200.67 225.23 1204.56 225.785 1207.27 226.41C1209.98 227.035 1211.51 227.73 1212.82 228.702C1214.14 229.675 1215.26 230.924 1216.16 233.077C1217.06 235.231 1217.76 238.285 1218.24 240.439C1218.73 242.592 1219.01 243.841 1219.42 245.021C1219.84 246.201 1220.39 247.314 1219.21 247.73V247.73Z" fill="#888282" stroke="black" stroke-width="1.875" stroke-miterlimit="10" stroke-linejoin="round"/>
<path id="Vector_46" d="M1172.76 228.564C1177.76 228.564 1187.48 229.119 1192.69 229.535C1197.89 229.951 1198.59 230.23 1199.07 230.577C1199.56 230.925 1199.84 231.341 1200.26 233.424C1200.67 235.506 1201.23 239.257 1201.09 241.132C1200.95 243.007 1200.12 243.007 1196.78 242.869C1193.45 242.73 1187.62 242.452 1183.59 242.174C1179.56 241.895 1177.34 241.619 1175.6 240.716C1173.87 239.814 1172.62 238.285 1171.37 236.689C1170.12 235.092 1168.87 233.424 1168.17 232.244C1167.48 231.064 1167.34 230.369 1167.41 229.744C1167.48 229.119 1167.76 228.564 1172.76 228.564Z" fill="white" stroke="#A6A6A6" stroke-width="0.0625" stroke-miterlimit="10" stroke-linejoin="round"/>
<path id="Vector_47" d="M1065.52 231.928C1062.18 225.095 1058.85 218.262 1054.6 212.012C1050.35 205.762 1045.18 200.096 1039.35 195.096C1033.52 190.096 1027.02 185.762 1018.85 181.846C1010.68 177.93 1000.85 174.428 990.184 172.346C979.518 170.263 968.018 169.596 957.184 170.178C946.35 170.761 936.184 172.596 927.018 175.596C917.852 178.596 909.684 182.762 902.018 187.512C894.352 192.262 887.184 197.596 880.85 203.512C874.516 209.428 869.018 215.928 864.184 223.762C859.35 231.596 855.184 240.762 852.184 250.346C849.184 259.93 847.35 269.928 846.1 276.096C844.85 282.264 844.184 284.596 843.517 286.928" stroke="black" stroke-width="0.05" stroke-miterlimit="10" stroke-linejoin="round"/>
<path id="Vector_48" d="M433.538 58.4238C419.538 61.9238 405.538 65.4238 390.37 69.6738C375.202 73.9238 358.87 78.9238 347.454 82.5918C336.038 86.2598 329.538 88.5918 326.454 89.8418C323.37 91.0918 323.704 91.258 324.454 91.9243C325.204 92.5906 326.37 93.7581 328.204 94.5081C330.038 95.2581 332.538 95.5919 333.954 96.0919C335.37 96.5919 335.704 97.2581 336.37 98.1744C337.036 99.0907 338.037 100.258 338.954 101.092C339.87 101.926 340.704 102.424 341.12 102.674C341.536 102.924 341.537 102.924 355.12 103.674C368.702 104.424 395.87 105.924 413.954 107.008C432.038 108.092 441.038 108.758 450.038 109.424L433.538 58.4244" fill="#EAE7EA"/>
<path id="Vector_49" d="M313.798 103.618C313 103.983 303.626 103.045 296.486 102.254C289.346 101.463 284.441 100.815 280.488 100.034C276.535 99.2528 273.535 98.3365 271.285 97.5028C269.035 96.6691 267.535 95.919 266.743 94.669C265.95 93.419 265.868 91.669 266.618 89.8778C267.368 88.0866 268.952 86.2528 271.035 84.419C273.119 82.5852 275.702 80.7528 279.243 78.8365C282.784 76.9202 287.285 74.919 290.743 73.3365C294.2 71.754 296.618 70.5865 297.535 70.3365C298.453 70.0865 297.868 70.7527 296.368 72.0865C294.868 73.4202 292.452 75.419 290.452 77.419C288.452 79.419 286.868 81.419 285.827 83.294C284.785 85.169 284.285 86.919 284.202 88.6278C284.118 90.3366 284.452 92.0028 285.327 93.294C286.202 94.5852 287.618 95.5028 289.993 96.544C292.368 97.5852 295.702 98.7528 301.258 100.169C306.814 101.585 314.596 103.253 313.798 103.618" fill="#3E4147"/>
<g id="Vector_50">
<path d="M425.038 31.0498L450.038 109.3Z" fill="#3E4147"/>
<path d="M425.038 31.0498L450.038 109.3" stroke="black" stroke-width="0.25" stroke-miterlimit="10" stroke-linejoin="round"/>
</g>
<g id="Vector_51">
<path d="M447.288 27.7998L476.788 113.8Z" fill="#3E4147"/>
<path d="M447.288 27.7998L476.788 113.8" stroke="black" stroke-width="0.25" stroke-miterlimit="10" stroke-linejoin="round"/>
</g>
<path id="Vector_52" d="M833.858 118.728C835.385 117.57 836.914 116.413 838.059 115.14C839.204 113.868 839.969 112.478 840.352 111.205C840.734 109.933 840.733 108.774 840.733 107.616" stroke="black" stroke-width="2.465" stroke-miterlimit="10" stroke-linejoin="round"/>
<path id="Vector_53" d="M834.838 316.198C813.033 315.087 769.699 314.253 724.838 313.698C679.977 313.142 633.588 312.864 590.808 313.419C548.03 313.975 508.863 315.364 479.838 315.78C450.813 316.196 431.922 315.641 417.756 314.809C403.59 313.976 394.145 312.864 389.145 313.28C384.145 313.696 383.589 315.641 383.172 317.864C382.756 320.087 382.477 322.586 382.811 324.829C383.145 327.071 384.089 329.059 390.466 330.159C396.844 331.259 408.654 331.474 437.626 330.481C466.598 329.489 512.732 327.288 554.966 326.048C597.2 324.808 635.534 324.53 670.116 325.225C704.7 325.919 735.534 327.586 761.784 328.836C788.034 330.086 809.7 330.919 824.249 331.551C838.798 332.184 846.228 332.614 850.36 331.893C854.492 331.171 855.325 329.295 855.915 327.135C856.505 324.975 856.853 322.53 856.888 320.614C856.923 318.698 856.645 317.309 834.839 316.198L834.838 316.198Z" fill="#5D5B60" stroke="black" stroke-width="0.0625" stroke-miterlimit="10" stroke-linejoin="round"/>
<path id="Vector_54" d="M384.038 329.548C425.762 329.278 467.487 329.008 501.488 328.265C535.489 327.523 561.763 326.305 588.859 325.878C615.955 325.45 643.871 325.812 670.955 326.513C698.039 327.214 724.289 328.257 748.976 329.402C773.663 330.547 796.788 331.798 813.246 332.382C829.704 332.965 839.496 332.882 849.288 332.798" stroke="black" stroke-width="2.5" stroke-miterlimit="10" stroke-linejoin="round"/>
<path id="Vector_55" d="M49.5328 265.928C41.3653 265.262 33.1988 264.595 26.6988 264.012C20.1988 263.428 15.3648 262.928 10.5328 262.428C11.0328 263.595 11.5328 264.762 12.699 265.678C13.8652 266.594 15.699 267.262 19.1152 267.762C22.5314 268.262 27.5327 268.595 31.7832 268.845C36.0337 269.095 39.5332 269.262 41.5332 269.345C43.5332 269.429 44.0332 269.428 45.1157 268.845C46.1982 268.263 47.8657 267.095 49.5332 265.928L49.5328 265.928Z" fill="#AFB2AF" stroke="black" stroke-width="0.0625" stroke-miterlimit="10" stroke-linejoin="round"/>
<path id="Vector_56" d="M186.038 205.548C158.649 205.395 131.261 205.242 107.843 205.304C84.4248 205.367 64.9818 205.644 50.1198 205.783C35.2578 205.922 24.9808 205.922 14.7038 205.922" stroke="black" stroke-width="0.0625" stroke-miterlimit="10" stroke-linejoin="round"/>
<path id="Vector_57" d="M274.698 119.258C254.143 120.647 233.587 122.035 212.754 123.563C191.921 125.09 170.809 126.758 154.559 128.285C138.309 129.813 126.92 131.203 118.864 132.035C110.809 132.869 106.086 133.146 102.893 132.453C99.6978 131.758 98.0315 130.092 96.504 128.703C94.9765 127.314 93.5865 126.203 92.1978 125.092C101.643 123.424 111.087 121.758 123.309 120.647C135.531 119.535 150.531 118.98 166.225 118.424C181.92 117.869 198.309 117.313 211.781 116.48C225.253 115.648 235.809 114.535 242.753 114.535C249.697 114.535 253.031 115.646 257.753 116.619C262.475 117.592 268.585 118.424 274.697 119.258" fill="#3C3C3C"/>
<path id="Vector_58" d="M1216.02 258.428C1215.85 262.762 1215.68 267.095 1214.85 272.762C1214.02 278.428 1212.52 285.428 1211.35 290.262C1210.18 295.096 1209.35 297.762 1208.52 300.428C1208.68 295.262 1208.85 290.096 1208.68 284.428C1208.52 278.76 1208.02 272.596 1207.85 267.762C1207.68 262.928 1207.85 259.428 1208.27 257.512C1208.69 255.596 1209.35 255.262 1210.02 255.428C1210.69 255.594 1211.35 256.262 1212.35 256.845C1213.35 257.429 1214.68 257.928 1216.02 258.428" fill="#2E2D35"/>
<path id="Vector_59" d="M1081.82 143.738C1086.19 148.322 1090.57 152.905 1096.56 158.113C1102.55 163.32 1110.15 169.155 1116.24 173.687C1122.34 178.219 1126.92 181.447 1131.14 184.363C1135.36 187.279 1139.21 189.884 1143.07 192.488" stroke="black" stroke-width="2.5" stroke-miterlimit="10" stroke-linejoin="round"/>
<path id="Vector_60" d="M1208.62 248.428C1195.49 248.428 1182.37 248.428 1168.1 248.22C1153.83 248.013 1138.41 247.595 1129.45 247.178C1120.49 246.76 1117.99 246.345 1115.49 245.928" stroke="#323535" stroke-width="0.0625" stroke-miterlimit="10" stroke-linejoin="round"/>
<path id="Vector_61" d="M1227.02 316.178C1223.68 315.865 1220.35 315.553 1216.24 314.928C1212.12 314.303 1207.23 313.365 1194.73 311.75C1182.23 310.136 1162.12 307.844 1141.16 305.511C1120.21 303.179 1098.39 300.803 1076.58 298.428C1076 303.553 1075.41 308.678 1074.45 313.876C1073.48 319.074 1072.12 324.345 1071.03 328.282C1069.93 332.219 1069.1 334.824 1068.27 337.428C1072.54 337.115 1076.81 336.803 1082.38 336.074C1087.96 335.345 1094.83 334.199 1102.02 333.262C1109.21 332.324 1116.71 331.594 1123.58 331.074C1130.45 330.554 1136.71 330.24 1144.15 329.615C1151.6 328.99 1160.25 328.053 1167.59 327.428C1174.93 326.803 1180.98 326.49 1186.24 326.125C1191.5 325.76 1195.98 325.344 1200.43 325.137C1204.88 324.929 1209.31 324.928 1212.95 324.355C1216.6 323.783 1219.46 322.636 1221.47 321.49C1223.48 320.344 1224.62 319.199 1225.4 318.313C1226.18 317.426 1226.6 316.803 1227.02 316.178H1227.02Z" fill="#605E63"/>
<path id="Vector_62" d="M1224.32 315.998C1221.47 316.207 1214.53 315.65 1202.86 314.332C1191.19 313.013 1174.8 310.928 1159.11 309.123C1143.41 307.317 1128.41 305.789 1116.68 304.818C1104.94 303.847 1096.47 303.428 1091.96 302.803C1087.44 302.178 1086.89 301.345 1087.1 300.443C1087.31 299.54 1088.28 298.567 1090.43 297.942C1092.58 297.317 1095.92 297.039 1106.05 297.248C1116.19 297.457 1133.14 298.15 1148.42 299.053C1163.69 299.955 1177.3 301.067 1185.64 302.039C1193.97 303.011 1197.03 303.845 1200.92 305.025C1204.8 306.205 1209.53 307.734 1213.62 309.261C1217.72 310.789 1221.19 312.316 1223.55 313.566C1225.92 314.816 1227.17 315.789 1224.32 315.998L1224.32 315.998Z" fill="#C4C4C4" stroke="#6E6E6E" stroke-width="0.0625" stroke-miterlimit="10" stroke-linejoin="round"/>
<path id="Vector_63" d="M12.2338 291.518C11.9213 292.663 12.06 295.024 12.1988 296.725C12.3375 298.427 12.4763 299.469 13.0675 300.198C13.6588 300.926 14.6987 301.344 18.865 302.282C23.0313 303.219 30.324 304.677 42.755 306.83C55.186 308.984 72.7551 311.83 83.7261 313.532C94.6971 315.233 99.0741 315.788 105.394 316.448C111.714 317.108 119.976 317.872 125.602 318.254C131.228 318.636 134.213 318.635 135.741 318.566C137.269 318.498 137.339 318.358 137.582 318.01C137.826 317.663 138.241 317.108 138.936 315.719C139.631 314.33 140.602 312.108 140.985 309.712C141.367 307.315 141.159 304.747 140.325 302.594C139.491 300.442 138.034 298.705 136.749 297.455C135.464 296.205 134.352 295.441 133.346 294.989C132.34 294.537 131.436 294.399 114.735 293.462C98.0342 292.524 65.5341 290.788 48.7621 289.989C31.9901 289.19 30.9501 289.33 30.1161 289.573C29.2821 289.815 28.6586 290.163 27.9986 290.407C27.3386 290.65 26.6448 290.788 25.2211 290.927C23.7974 291.065 21.6449 291.205 19.6649 291.135C17.6849 291.065 15.8811 290.788 14.5961 290.614C13.3111 290.44 12.5473 290.372 12.2349 291.518" fill="#605E63"/>
<path id="Vector_64" d="M12.2338 291.518C11.9213 292.663 12.06 295.024 12.1988 296.725C12.3375 298.427 12.4763 299.469 13.0675 300.198C13.6588 300.926 14.6987 301.344 18.865 302.282C23.0313 303.219 30.324 304.677 42.755 306.83C55.186 308.984 72.7551 311.83 83.7261 313.532C94.6971 315.233 99.0741 315.788 105.394 316.448C111.714 317.108 119.976 317.872 125.602 318.254C131.228 318.636 134.213 318.635 135.741 318.566C137.269 318.498 137.339 318.358 137.582 318.01C137.826 317.663 138.241 317.108 138.936 315.719C139.631 314.33 140.602 312.108 140.985 309.712C141.367 307.315 141.159 304.747 140.325 302.594C139.491 300.442 138.034 298.705 136.749 297.455C135.464 296.205 134.352 295.441 133.346 294.989C132.34 294.537 131.436 294.399 114.735 293.462C98.0342 292.524 65.5341 290.788 48.7621 289.989C31.9901 289.19 30.9501 289.33 30.1161 289.573C29.2821 289.815 28.6586 290.163 27.9986 290.407C27.3386 290.65 26.6448 290.788 25.2211 290.927C23.7974 291.065 21.6449 291.205 19.6649 291.135C17.6849 291.065 15.8811 290.788 14.5961 290.614C13.3111 290.44 12.5473 290.372 12.2349 291.518H12.2338Z" stroke="black" stroke-width="0.0625" stroke-miterlimit="10" stroke-linejoin="round"/>
<path id="Vector_65" d="M510.848 152.698C508.452 151.969 504.18 150.823 498.66 149.938C493.139 149.052 486.368 148.427 480.951 148.063C475.534 147.699 471.472 147.594 468.451 148.114C465.43 148.634 463.451 149.782 462.305 151.188C461.158 152.594 460.847 154.26 460.847 155.823C460.847 157.385 461.16 158.844 461.732 160.25C462.305 161.657 463.138 163.01 464.18 164.26C465.221 165.51 466.472 166.657 468.138 167.489C469.805 168.322 471.888 168.844 475.273 169.26C478.66 169.677 483.347 169.989 488.972 170.042C494.598 170.094 501.16 169.885 505.534 169.469C509.908 169.053 512.097 168.427 513.919 167.698C515.742 166.969 517.201 166.135 518.191 165.145C519.181 164.155 519.701 163.01 519.701 161.813C519.701 160.615 519.179 159.364 518.398 158.27C517.617 157.177 516.576 156.239 515.847 155.563C515.118 154.887 514.701 154.469 514.232 154.104C513.763 153.739 513.242 153.427 510.847 152.698L510.848 152.698Z" fill="#F3F4F9" stroke="#4D5050" stroke-width="0.05" stroke-miterlimit="10" stroke-linejoin="round"/>
<path id="Vector_66" d="M512.718 159.678C507.093 159.053 501.468 158.428 496.207 158.168C490.946 157.908 486.051 158.012 482.041 158.22C478.031 158.429 474.906 158.74 471.781 159.053C472.926 160.408 474.072 161.762 475.218 162.803C476.365 163.844 477.51 164.574 479.437 165.199C481.365 165.824 484.072 166.345 487.301 166.605C490.53 166.865 494.281 166.865 497.926 166.658C501.572 166.449 505.113 166.033 507.51 165.668C509.906 165.303 511.156 164.99 511.937 164.261C512.719 163.533 513.031 162.386 513.082 161.553C513.133 160.719 512.926 160.199 512.718 159.678" fill="#4D4D55"/>
</g>
<g id="right-wheel">
<path id="Vector_67" d="M966.808 215.778C994.733 215.778 1017.37 238.416 1017.37 266.339C1017.37 294.262 994.733 316.9 966.808 316.9C938.884 316.9 916.248 294.262 916.248 266.339C916.248 238.416 938.884 215.778 966.808 215.778" fill="url(#paint7_linear)"/>
<path id="Vector_68" d="M966.808 215.778C994.733 215.778 1017.37 238.416 1017.37 266.339C1017.37 294.262 994.733 316.9 966.808 316.9C938.884 316.9 916.248 294.262 916.248 266.339C916.248 238.416 938.884 215.778 966.808 215.778V215.778Z" stroke="#35343C" stroke-width="0.11174" stroke-miterlimit="10" stroke-linejoin="round"/>
<path id="Vector_69" d="M939.038 303.188L938.665 221.62H931.589L914.828 239.871L915.201 285.682L928.61 302.814L939.039 303.186" fill="#D51319"/>
<path id="Vector_70" d="M966.808 190.078C1008.93 190.078 1043.07 224.22 1043.07 266.338C1043.07 308.456 1008.93 342.598 966.808 342.598C924.69 342.598 890.548 308.456 890.548 266.338C890.548 224.22 924.692 190.078 966.808 190.078V190.078ZM903.832 261.893L903.398 262.148L952.198 254.904L943.196 207.702C921.37 216.546 905.545 237.276 903.832 261.893L903.832 261.893ZM951.801 204.827L951.321 205.121L951.883 204.982L974.574 247.451L1015.29 225.887C1003.84 212.099 986.365 203.207 966.807 203.207C961.666 203.207 956.667 203.822 951.882 204.982L951.8 204.827H951.801ZM1020.99 298.771L1020.98 298.766C1026.67 289.288 1029.94 278.195 1029.94 266.338C1029.94 254.122 1026.47 242.716 1020.59 233.078L987.95 266.077L1020.98 298.766L1020.71 299.212L1020.99 298.771H1020.99ZM952.842 328.352L953.304 328.022C957.654 328.969 962.173 329.469 966.808 329.469C986.417 329.469 1003.94 320.529 1015.5 306.59L974.545 285.002L952.841 328.351L952.842 328.352ZM943.722 324.986L952.408 277.671L903.792 270.838C905.546 295.606 921.647 316.5 943.867 325.172L943.722 324.986" fill="url(#paint8_radial)"/>
<path id="Vector_71" d="M966.808 190.078C1008.93 190.078 1043.07 224.22 1043.07 266.338C1043.07 308.456 1008.93 342.598 966.808 342.598C924.69 342.598 890.548 308.456 890.548 266.338C890.548 224.22 924.692 190.078 966.808 190.078V190.078ZM903.832 261.893L903.398 262.148L952.198 254.904L943.196 207.702C921.37 216.546 905.545 237.276 903.832 261.893L903.832 261.893ZM951.801 204.827L951.321 205.121L951.883 204.982L974.574 247.451L1015.29 225.887C1003.84 212.099 986.365 203.207 966.807 203.207C961.666 203.207 956.667 203.822 951.882 204.982L951.8 204.827H951.801ZM1020.99 298.771L1020.98 298.766C1026.67 289.288 1029.94 278.195 1029.94 266.338C1029.94 254.122 1026.47 242.716 1020.59 233.078L987.95 266.077L1020.98 298.766L1020.71 299.212L1020.99 298.771H1020.99ZM952.842 328.352L953.304 328.022C957.654 328.969 962.173 329.469 966.808 329.469C986.417 329.469 1003.94 320.529 1015.5 306.59L974.545 285.002L952.841 328.351L952.842 328.352ZM943.722 324.986L952.408 277.671L903.792 270.838C905.546 295.606 921.647 316.5 943.867 325.172L943.722 324.986L943.722 324.986Z" stroke="#15180F" stroke-width="0.0625" stroke-miterlimit="10" stroke-linejoin="round"/>
<path id="Vector_72" d="M986.968 254.248C987.656 256.584 986.32 259.038 983.983 259.725C981.645 260.413 979.193 259.078 978.505 256.74C977.818 254.403 979.153 251.95 981.49 251.263C983.828 250.575 986.279 251.91 986.968 254.248" fill="url(#paint9_radial)"/>
<path id="Vector_73" d="M986.008 273.928C986.697 276.265 985.36 278.718 983.023 279.407C980.685 280.095 978.233 278.758 977.545 276.422C976.858 274.085 978.193 271.632 980.53 270.943C982.868 270.254 985.319 271.59 986.008 273.928Z" fill="url(#paint10_radial)"/>
<path id="Vector_74" d="M967.358 280.858C968.047 283.194 966.71 285.648 964.373 286.335C962.035 287.023 959.583 285.688 958.895 283.35C958.208 281.013 959.543 278.561 961.88 277.873C964.218 277.184 966.669 278.52 967.358 280.858Z" fill="url(#paint11_radial)"/>
<path id="Vector_75" d="M954.868 263.848C955.557 266.184 954.22 268.637 951.883 269.325C949.545 270.014 947.094 268.678 946.405 266.34C945.717 264.003 947.053 261.55 949.39 260.863C951.728 260.175 954.18 261.51 954.868 263.848Z" fill="url(#paint12_radial)"/>
<path id="Vector_76" d="M967.308 247.528C967.995 249.865 966.659 252.318 964.323 253.007C961.987 253.695 959.533 252.359 958.844 250.022C958.155 247.684 959.493 245.232 961.829 244.543C964.165 243.854 966.619 245.192 967.308 247.528Z" fill="url(#paint13_radial)"/>
<path id="Vector_77" d="M975.318 263.838C976.603 268.199 974.109 272.775 969.748 274.06C965.388 275.344 960.81 272.85 959.527 268.49C958.243 264.13 960.736 259.552 965.096 258.268C969.457 256.984 974.033 259.478 975.318 263.838" fill="url(#paint14_radial)"/>
<path id="Vector_78" d="M966.808 173.638C915.614 173.638 874.112 215.139 874.112 266.334C874.112 317.529 915.614 359.03 966.808 359.03C1018 359.03 1059.51 317.529 1059.51 266.334C1059.51 215.139 1018 173.638 966.808 173.638V173.638ZM966.808 190.073C1008.93 190.073 1043.07 224.217 1043.07 266.334C1043.07 308.451 1008.93 342.595 966.808 342.595C924.689 342.595 890.548 308.451 890.548 266.334C890.548 224.217 924.69 190.073 966.808 190.073V190.073Z" fill="#2F2F2F" stroke="#15180F" stroke-width="0.125" stroke-miterlimit="10" stroke-linejoin="round"/>
</g>
<g id="left-wheel">
<path id="Vector_79" d="M279.448 314.568C251.524 314.568 228.888 291.93 228.888 264.007C228.888 236.084 251.524 213.446 279.448 213.446C307.372 213.446 330.009 236.084 330.009 264.007C330.009 291.93 307.371 314.568 279.448 314.568Z" fill="url(#paint15_linear)"/>
<path id="Vector_80" d="M279.448 314.568C251.524 314.568 228.888 291.93 228.888 264.007C228.888 236.084 251.524 213.446 279.448 213.446C307.372 213.446 330.009 236.084 330.009 264.007C330.009 291.93 307.371 314.568 279.448 314.568Z" stroke="#35343C" stroke-width="0.11174" stroke-miterlimit="10" stroke-linejoin="round"/>
<path id="Vector_81" d="M307.218 227.158L307.59 308.726H314.667L331.427 290.476L331.054 244.664L317.646 227.532L307.217 227.159" fill="#D51319"/>
<path id="Vector_82" d="M279.448 340.268C237.33 340.268 203.188 306.126 203.188 264.008C203.188 221.89 237.33 187.748 279.448 187.748C321.566 187.748 355.708 221.89 355.708 264.008C355.708 306.126 321.565 340.268 279.448 340.268ZM342.426 268.453L342.858 268.198L294.058 275.443L303.061 322.644C324.887 313.8 340.713 293.07 342.426 268.453ZM294.456 325.519L294.937 325.225L294.373 325.364L271.683 282.896L230.972 304.458C242.412 318.246 259.892 327.138 279.448 327.138C284.589 327.138 289.588 326.523 294.373 325.363L294.456 325.518V325.519ZM225.266 231.575L225.271 231.58C219.586 241.057 216.317 252.151 216.317 264.008C216.317 276.224 219.787 287.63 225.66 297.268L258.304 264.269L225.271 231.58L225.542 231.134L225.266 231.575H225.266ZM293.416 201.994L292.953 202.324C288.602 201.376 284.083 200.876 279.448 200.876C259.839 200.876 242.319 209.816 230.753 223.755L271.712 245.343L293.416 201.994L293.416 201.994ZM302.536 205.36L293.85 252.675L342.466 259.509C340.711 234.74 324.61 213.845 302.391 205.174L302.536 205.36" fill="url(#paint16_radial)"/>
<path id="Vector_83" d="M279.448 340.268C237.33 340.268 203.188 306.126 203.188 264.008C203.188 221.89 237.33 187.748 279.448 187.748C321.566 187.748 355.708 221.89 355.708 264.008C355.708 306.126 321.565 340.268 279.448 340.268ZM342.426 268.453L342.858 268.198L294.058 275.443L303.061 322.644C324.887 313.8 340.713 293.07 342.426 268.453ZM294.456 325.519L294.937 325.225L294.373 325.364L271.683 282.896L230.972 304.458C242.412 318.246 259.892 327.138 279.448 327.138C284.589 327.138 289.588 326.523 294.373 325.363L294.456 325.518V325.519ZM225.266 231.575L225.271 231.58C219.586 241.057 216.317 252.151 216.317 264.008C216.317 276.224 219.787 287.63 225.66 297.268L258.304 264.269L225.271 231.58L225.542 231.134L225.266 231.575H225.266ZM293.416 201.994L292.953 202.324C288.602 201.376 284.083 200.876 279.448 200.876C259.839 200.876 242.319 209.816 230.753 223.755L271.712 245.343L293.416 201.994L293.416 201.994ZM302.536 205.36L293.85 252.675L342.466 259.509C340.711 234.74 324.61 213.845 302.391 205.174L302.536 205.36L302.536 205.36Z" stroke="#15180F" stroke-width="0.0625" stroke-miterlimit="10" stroke-linejoin="round"/>
<path id="Vector_84" d="M259.288 276.098C258.6 273.762 259.937 271.309 262.273 270.62C264.609 269.932 267.063 271.268 267.752 273.605C268.44 275.943 267.104 278.395 264.767 279.083C262.429 279.77 259.977 278.435 259.288 276.098Z" fill="url(#paint17_radial)"/>
<path id="Vector_85" d="M260.248 256.418C259.559 254.08 260.897 251.628 263.233 250.939C265.569 250.25 268.023 251.588 268.712 253.924C269.4 256.26 268.064 258.714 265.727 259.403C263.389 260.092 260.937 258.755 260.248 256.418" fill="url(#paint18_radial)"/>
<path id="Vector_86" d="M278.898 249.478C278.21 247.142 279.547 244.689 281.883 244C284.219 243.312 286.673 244.648 287.362 246.985C288.05 249.323 286.714 251.774 284.377 252.463C282.039 253.151 279.587 251.815 278.898 249.478Z" fill="url(#paint19_radial)"/>
<path id="Vector_87" d="M291.378 266.498C290.689 264.162 292.027 261.709 294.363 261.02C296.699 260.332 299.153 261.668 299.842 264.005C300.53 266.343 299.193 268.795 296.857 269.483C294.52 270.17 292.067 268.835 291.378 266.498Z" fill="url(#paint20_radial)"/>
<path id="Vector_88" d="M278.938 282.808C278.249 280.47 279.585 278.018 281.923 277.329C284.26 276.64 286.713 277.978 287.4 280.314C288.088 282.65 286.753 285.104 284.415 285.793C282.078 286.482 279.626 285.144 278.938 282.808Z" fill="url(#paint21_radial)"/>
<path id="Vector_89" d="M270.938 266.508C269.653 262.147 272.147 257.57 276.507 256.286C280.868 255.002 285.444 257.496 286.729 261.856C288.014 266.217 285.52 270.793 281.159 272.078C276.799 273.362 272.221 270.869 270.938 266.508" fill="url(#paint22_radial)"/>
<path id="Vector_90" d="M279.448 356.708C330.643 356.708 372.144 315.207 372.144 264.012C372.144 212.817 330.643 171.316 279.448 171.316C228.253 171.316 186.752 212.817 186.752 264.012C186.752 315.207 228.253 356.708 279.448 356.708ZM279.448 340.273C237.33 340.273 203.187 306.129 203.187 264.012C203.187 221.895 237.331 187.751 279.448 187.751C321.565 187.751 355.709 221.895 355.709 264.012C355.709 306.129 321.565 340.273 279.448 340.273V340.273Z" fill="#2F2F2F" stroke="#15180F" stroke-width="0.125" stroke-miterlimit="10" stroke-linejoin="round"/>
</g>
<defs>
<linearGradient id="paint0_linear" x1="586.028" y1="54.6688" x2="586.028" y2="308.959" gradientUnits="userSpaceOnUse">
<stop stop-color="#0B3EF3"/>
<stop offset="0.9996" stop-color="#2178F6"/>
</linearGradient>
<linearGradient id="paint1_linear" x1="381" y1="262" x2="858" y2="324" gradientUnits="userSpaceOnUse">
<stop stop-color="#0A39F3"/>
<stop offset="1" stop-color="#22BAF7"/>
</linearGradient>
<linearGradient id="paint2_linear" x1="512.778" y1="0.937768" x2="360.658" y2="0.937768" gradientUnits="userSpaceOnUse">
<stop stop-color="#F5F6FA"/>
<stop offset="0.2842" stop-color="#D5DAE0"/>
<stop offset="0.4199" stop-color="#FDFDFD"/>
<stop offset="0.6592" stop-color="#9FA0A5"/>
<stop offset="0.8691" stop-color="#EEF3F5"/>
<stop offset="1" stop-color="#EEF3F5"/>
</linearGradient>
<linearGradient id="paint3_linear" x1="351.528" y1="0.937768" x2="333.688" y2="0.937768" gradientUnits="userSpaceOnUse">
<stop stop-color="#F5F6FA"/>
<stop offset="0.2842" stop-color="#D5DAE0"/>
<stop offset="0.4199" stop-color="#FDFDFD"/>
<stop offset="0.6592" stop-color="#9FA0A5"/>
<stop offset="0.8691" stop-color="#EEF3F5"/>
<stop offset="1" stop-color="#EEF3F5"/>
</linearGradient>
<linearGradient id="paint4_linear" x1="400" y1="308.5" x2="446.296" y2="303.55" gradientUnits="userSpaceOnUse">
<stop stop-color="#00FFD1"/>
<stop offset="1" stop-color="#0538EF"/>
</linearGradient>
<radialGradient id="paint5_radial" cx="0" cy="0" r="1" gradientUnits="userSpaceOnUse" gradientTransform="translate(421.278 171.678) rotate(180) scale(64.415)">
<stop stop-color="#F5F6FA"/>
<stop offset="0.2842" stop-color="#D5DAE0"/>
<stop offset="0.4199" stop-color="#FDFDFD"/>
<stop offset="0.6592" stop-color="#9FA0A5"/>
<stop offset="0.8691" stop-color="#EEF3F5"/>
<stop offset="1" stop-color="#EEF3F5"/>
</radialGradient>
<linearGradient id="paint6_linear" x1="627.539" y1="140.805" x2="627.539" y2="272.393" gradientUnits="userSpaceOnUse">
<stop stop-color="#0B3EF3"/>
<stop offset="0.9996" stop-color="#2178F6"/>
</linearGradient>
<linearGradient id="paint7_linear" x1="916.188" y1="0.937745" x2="1017.42" y2="0.937745" gradientUnits="userSpaceOnUse">
<stop/>
<stop offset="0.4045" stop-color="white"/>
<stop offset="1"/>
</linearGradient>
<radialGradient id="paint8_radial" cx="0" cy="0" r="1" gradientUnits="userSpaceOnUse" gradientTransform="translate(889.988 266.338) scale(153.63)">
<stop stop-color="#F5F6FA"/>
<stop offset="0.2842" stop-color="#D5DAE0"/>
<stop offset="0.4199" stop-color="#FDFDFD"/>
<stop offset="0.6592" stop-color="#9FA0A5"/>
<stop offset="0.8691" stop-color="#EEF3F5"/>
<stop offset="1" stop-color="#EEF3F5"/>
</radialGradient>
<radialGradient id="paint9_radial" cx="0" cy="0" r="1" gradientUnits="userSpaceOnUse" gradientTransform="translate(981.488 251.258) rotate(73.585) scale(8.82293 8.82274)">
<stop stop-color="white"/>
<stop offset="1"/>
</radialGradient>
<radialGradient id="paint10_radial" cx="0" cy="0" r="1" gradientUnits="userSpaceOnUse" gradientTransform="translate(980.528 270.938) rotate(73.586) scale(8.82278)">
<stop stop-color="white"/>
<stop offset="1"/>
</radialGradient>
<radialGradient id="paint11_radial" cx="0" cy="0" r="1" gradientUnits="userSpaceOnUse" gradientTransform="translate(961.878 277.878) rotate(73.5858) scale(8.82267)">
<stop stop-color="white"/>
<stop offset="1"/>
</radialGradient>
<radialGradient id="paint12_radial" cx="0" cy="0" r="1" gradientUnits="userSpaceOnUse" gradientTransform="translate(949.388 260.858) rotate(73.5858) scale(8.8227)">
<stop stop-color="white"/>
<stop offset="1"/>
</radialGradient>
<radialGradient id="paint13_radial" cx="0" cy="0" r="1" gradientUnits="userSpaceOnUse" gradientTransform="translate(961.838 244.548) rotate(73.586) scale(8.82278)">
<stop stop-color="white"/>
<stop offset="1"/>
</radialGradient>
<radialGradient id="paint14_radial" cx="0" cy="0" r="1" gradientUnits="userSpaceOnUse" gradientTransform="translate(965.098 258.268) rotate(73.5858) scale(16.463)">
<stop stop-color="white"/>
<stop offset="1"/>
</radialGradient>
<linearGradient id="paint15_linear" x1="330.068" y1="0.937751" x2="228.828" y2="0.937751" gradientUnits="userSpaceOnUse">
<stop/>
<stop offset="0.4045" stop-color="white"/>
<stop offset="1"/>
</linearGradient>
<radialGradient id="paint16_radial" cx="0" cy="0" r="1" gradientUnits="userSpaceOnUse" gradientTransform="translate(356.268 264.008) rotate(180) scale(153.63)">
<stop stop-color="#F5F6FA"/>
<stop offset="0.2842" stop-color="#D5DAE0"/>
<stop offset="0.4199" stop-color="#FDFDFD"/>
<stop offset="0.6592" stop-color="#9FA0A5"/>
<stop offset="0.8691" stop-color="#EEF3F5"/>
<stop offset="1" stop-color="#EEF3F5"/>
</radialGradient>
<radialGradient id="paint17_radial" cx="0" cy="0" r="1" gradientUnits="userSpaceOnUse" gradientTransform="translate(264.768 279.088) rotate(-106.415) scale(8.82292 8.82277)">
<stop stop-color="white"/>
<stop offset="1"/>
</radialGradient>
<radialGradient id="paint18_radial" cx="0" cy="0" r="1" gradientUnits="userSpaceOnUse" gradientTransform="translate(265.718 259.398) rotate(-106.414) scale(8.82276)">
<stop stop-color="white"/>
<stop offset="1"/>
</radialGradient>
<radialGradient id="paint19_radial" cx="0" cy="0" r="1" gradientUnits="userSpaceOnUse" gradientTransform="translate(284.378 252.468) rotate(-106.414) scale(8.82267)">
<stop stop-color="white"/>
<stop offset="1"/>
</radialGradient>
<radialGradient id="paint20_radial" cx="0" cy="0" r="1" gradientUnits="userSpaceOnUse" gradientTransform="translate(296.858 269.488) rotate(-106.414) scale(8.8227)">
<stop stop-color="white"/>
<stop offset="1"/>
</radialGradient>
<radialGradient id="paint21_radial" cx="0" cy="0" r="1" gradientUnits="userSpaceOnUse" gradientTransform="translate(284.418 285.798) rotate(-106.414) scale(8.82278)">
<stop stop-color="white"/>
<stop offset="1"/>
</radialGradient>
<radialGradient id="paint22_radial" cx="0" cy="0" r="1" gradientUnits="userSpaceOnUse" gradientTransform="translate(281.158 272.078) rotate(-106.414) scale(16.463)">
<stop stop-color="white"/>
<stop offset="1"/>
</radialGradient>
</defs>
</svg>
