<svg width="1656" height="947" viewBox="0 0 1656 947" fill="none" xmlns="http://www.w3.org/2000/svg">
<g id="device">
<rect id="Rectangle 1" x="77.0804" y="45.6285" width="1502.59" height="854.705" fill="url(#paint0_linear)"/>
<path id="Nya f&#195;&#182;nstret" d="M54.6062 133.44L54.9259 216.757C54.6417 259.384 1.47957 241.617 1.31971 299.923L1 382.195C1 424.541 54.766 387.83 54.766 473.351C54.766 558.871 1.47958 523.072 1 564.655V813.41C1 945.851 1.47956 945.403 143.417 946L694.044 945.702C765.252 945.702 774.133 895.98 836.461 896.13H1244.35C1315.56 896.279 1262.27 945.851 1333.48 945.851L1564.39 946C1656.04 946 1653.04 945.552 1653.2 862.982L1653.36 598.101C1653.04 555.623 1610.16 560.794 1609.59 516.956L1609.74 303.437C1609.31 260.544 1653.56 260.412 1655.28 217.652V89.371C1655.42 3.99986 1603.04 1.44752 1511.1 1.44752L871.505 1C782.695 1 810.386 46.0805 718.165 46.6275C628.235 46.6275 641.201 1.41434 552.231 1.41434L196.544 1.29831C81.0895 1.29831 54.6062 34.5949 54.6062 133.44ZM1563.91 382.195L1564.23 829.387C1564.39 896.13 1564.07 895.98 1528.55 895.831L1422.45 896.13C1376.75 895.98 1394.19 863.131 1333.32 863.131H782.855C719.728 862.833 719.87 901.798 646.565 901.798L143.257 896.13C117.253 895.98 90.1305 895.831 90.1305 862.982L90.2903 647.524C90.2903 519.243 143.772 603.554 143.204 474.213L143.257 133.44C143.257 92.0062 143.417 50.8703 196.544 50.5719L338.641 50.7211C427.292 50.7211 365.764 83.7194 462.976 83.8686L551.787 84.0178L552.106 166.737H871.825L871.505 84.0178L1155.86 84.1669C1200.58 83.8685 1182.18 50.572 1226.91 50.8703H1475.42C1510.78 51.0195 1511.1 51.1686 1511.1 84.4652V299.625C1510.78 348.75 1564.23 349.197 1563.91 382.195ZM605.073 83.7691L658.573 83.968L640.491 133.689H587.204L605.073 83.7691ZM694.097 83.968H747.277L729.746 133.49L676.228 133.391L694.097 83.968ZM782.908 83.8686L764.826 133.689H818.219L836.319 83.968L782.908 83.8686Z" fill="url(#paint1_linear)" stroke="black" stroke-width="0.00333333"/>
</g>
<defs>
<linearGradient id="paint0_linear" x1="371.987" y1="139.605" x2="1362.22" y2="791.038" gradientUnits="userSpaceOnUse">
<stop stop-color="#EA1313"/>
<stop offset="0.537258" stop-color="#F019B4"/>
<stop offset="1" stop-color="#651EDA"/>
</linearGradient>
<linearGradient id="paint1_linear" x1="104.931" y1="58.4761" x2="1592.72" y2="893.278" gradientUnits="userSpaceOnUse">
<stop offset="0.0102043" stop-color="#75EB7A"/>
<stop offset="1" stop-color="#1A56F1"/>
</linearGradient>
</defs>
</svg>
