<svg width="464" height="131" viewBox="0 0 464 131" fill="none" xmlns="http://www.w3.org/2000/svg">
<g id="LOADING...">
<path d="M45.9453 121H10.7891V10.9609H20.5625V112.352H45.9453V121ZM105.781 113.195C105.781 115.492 105.031 117.367 103.531 118.82C102.078 120.273 100.203 121 97.9062 121H67.1094C64.8125 121 62.9375 120.273 61.4844 118.82C60.0312 117.367 59.3047 115.492 59.3047 113.195V18.7656C59.3047 16.4687 60.0312 14.5938 61.4844 13.1406C62.9375 11.6875 64.8125 10.9609 67.1094 10.9609H97.9062C100.203 10.9609 102.078 11.6875 103.531 13.1406C105.031 14.5938 105.781 16.4687 105.781 18.7656V113.195ZM96.0078 112.352V19.6094H69.0781V112.352H96.0078ZM167.797 121H158.094L154.227 96.5312H132.359L128.492 121H119.07V120.719L138.688 10.6797H148.32L167.797 121ZM152.961 87.8828L143.328 28.2578L133.625 87.8828H152.961ZM226.438 101.102C226.438 106.914 224.516 111.695 220.672 115.445C216.875 119.148 212.07 121 206.258 121H181.086V10.9609H206.258C212.117 10.9609 216.945 12.8359 220.742 16.5859C224.539 20.2891 226.438 25.0469 226.438 30.8594V101.102ZM216.664 100.117V31.7031C216.664 28.0938 215.516 25.1875 213.219 22.9844C210.969 20.7344 208.039 19.6094 204.43 19.6094H190.859V112.352H203.867C207.664 112.352 210.734 111.273 213.078 109.117C215.469 106.914 216.664 103.914 216.664 100.117ZM254 121H244.227V10.9609H254V121ZM317.703 121H310.953L281.562 40.0703V121H272.352V10.9609H279.664L308.492 90.4844V10.9609H317.703V121ZM379.859 113.195C379.859 115.492 379.133 117.367 377.68 118.82C376.227 120.273 374.352 121 372.055 121H343.156C340.859 121 338.984 120.273 337.531 118.82C336.078 117.367 335.352 115.492 335.352 113.195V18.7656C335.352 16.4687 336.078 14.5938 337.531 13.1406C338.984 11.6875 340.859 10.9609 343.156 10.9609H372.055C374.352 10.9609 376.227 11.6875 377.68 13.1406C379.133 14.5938 379.859 16.4687 379.859 18.7656V44.3594H370.016V19.6094H345.125V112.352H370.016V74.3125H358.273V65.875H379.859V113.195ZM405.875 121H395.188V108.625H405.875V121ZM429.781 121H419.094V108.625H429.781V121ZM453.688 121H443V108.625H453.688V121Z" fill="url(#paint0_linear)"/>
<path d="M45.9453 121V131H55.9453V121H45.9453ZM10.7891 121H0.789062V131H10.7891V121ZM10.7891 10.9609V0.960938H0.789062V10.9609H10.7891ZM20.5625 10.9609H30.5625V0.960938H20.5625V10.9609ZM20.5625 112.352H10.5625V122.352H20.5625V112.352ZM45.9453 112.352H55.9453V102.352H45.9453V112.352ZM45.9453 111H10.7891V131H45.9453V111ZM20.7891 121V10.9609H0.789062V121H20.7891ZM10.7891 20.9609H20.5625V0.960938H10.7891V20.9609ZM10.5625 10.9609V112.352H30.5625V10.9609H10.5625ZM20.5625 122.352H45.9453V102.352H20.5625V122.352ZM35.9453 112.352V121H55.9453V112.352H35.9453ZM103.531 118.82L96.5733 111.638L96.5163 111.693L96.4602 111.749L103.531 118.82ZM103.531 13.1406L96.4602 20.2117L96.5163 20.2678L96.5733 20.323L103.531 13.1406ZM96.0078 112.352V122.352H106.008V112.352H96.0078ZM96.0078 19.6094H106.008V9.60938H96.0078V19.6094ZM69.0781 19.6094V9.60938H59.0781V19.6094H69.0781ZM69.0781 112.352H59.0781V122.352H69.0781V112.352ZM95.7812 113.195C95.7812 113.245 95.7761 113.005 95.934 112.61C96.0998 112.196 96.3476 111.857 96.5733 111.638L110.489 126.003C114.138 122.468 115.781 117.901 115.781 113.195H95.7812ZM96.4602 111.749C96.6948 111.515 97.0337 111.281 97.4219 111.131C97.7886 110.989 97.9929 111 97.9062 111V131C102.514 131 107.046 129.448 110.602 125.891L96.4602 111.749ZM97.9062 111H67.1094V131H97.9062V111ZM67.1094 111C67.0228 111 67.2271 110.989 67.5937 111.131C67.9819 111.281 68.3208 111.515 68.5554 111.749L54.4133 125.891C57.9701 129.448 62.5017 131 67.1094 131V111ZM68.5554 111.749C68.7901 111.984 69.0236 112.323 69.174 112.711C69.3161 113.078 69.3047 113.282 69.3047 113.195H49.3047C49.3047 117.803 50.8565 122.335 54.4133 125.891L68.5554 111.749ZM69.3047 113.195V18.7656H49.3047V113.195H69.3047ZM69.3047 18.7656C69.3047 18.679 69.3161 18.8833 69.174 19.2499C69.0236 19.6382 68.7901 19.9771 68.5554 20.2117L54.4133 6.06956C50.8565 9.62636 49.3047 14.1579 49.3047 18.7656H69.3047ZM68.5554 20.2117C68.3208 20.4463 67.9819 20.6798 67.5937 20.8303C67.2271 20.9723 67.0228 20.9609 67.1094 20.9609V0.960938C62.5017 0.960938 57.9701 2.51275 54.4133 6.06956L68.5554 20.2117ZM67.1094 20.9609H97.9062V0.960938H67.1094V20.9609ZM97.9062 20.9609C97.9929 20.9609 97.7886 20.9723 97.4219 20.8303C97.0337 20.6798 96.6948 20.4463 96.4602 20.2117L110.602 6.06956C107.046 2.51275 102.514 0.960938 97.9062 0.960938V20.9609ZM96.5733 20.323C96.3476 20.1044 96.0998 19.7652 95.934 19.3506C95.7761 18.9559 95.7812 18.7159 95.7812 18.7656H115.781C115.781 14.0599 114.138 9.49297 110.489 5.95822L96.5733 20.323ZM95.7812 18.7656V113.195H115.781V18.7656H95.7812ZM106.008 112.352V19.6094H86.0078V112.352H106.008ZM96.0078 9.60938H69.0781V29.6094H96.0078V9.60938ZM59.0781 19.6094V112.352H79.0781V19.6094H59.0781ZM69.0781 122.352H96.0078V102.352H69.0781V122.352ZM167.797 121V131H179.717L177.645 119.261L167.797 121ZM158.094 121L148.216 122.561L149.55 131H158.094V121ZM154.227 96.5312L164.104 94.9702L162.77 86.5312H154.227V96.5312ZM132.359 96.5312V86.5312H123.816L122.482 94.9702L132.359 96.5312ZM128.492 121V131H137.036L138.37 122.561L128.492 121ZM119.07 121H109.07V131H119.07V121ZM119.07 120.719L109.226 118.964L109.07 119.834V120.719H119.07ZM138.688 10.6797V0.679688H130.313L128.843 8.92461L138.688 10.6797ZM148.32 10.6797L158.168 8.94112L156.71 0.679688H148.32V10.6797ZM152.961 87.8828V97.8828H164.706L162.833 86.2879L152.961 87.8828ZM143.328 28.2578L153.2 26.6629L133.458 26.6516L143.328 28.2578ZM133.625 87.8828L123.755 86.2766L121.866 97.8828H133.625V87.8828ZM167.797 111H158.094V131H167.797V111ZM167.971 119.439L164.104 94.9702L144.349 98.0923L148.216 122.561L167.971 119.439ZM154.227 86.5312H132.359V106.531H154.227V86.5312ZM122.482 94.9702L118.615 119.439L138.37 122.561L142.237 98.0923L122.482 94.9702ZM128.492 111H119.07V131H128.492V111ZM129.07 121V120.719H109.07V121H129.07ZM128.915 122.474L148.532 12.4348L128.843 8.92461L109.226 118.964L128.915 122.474ZM138.688 20.6797H148.32V0.679688H138.688V20.6797ZM138.473 12.4183L157.949 122.739L177.645 119.261L158.168 8.94112L138.473 12.4183ZM162.833 86.2879L153.2 26.6629L133.456 29.8527L143.089 89.4777L162.833 86.2879ZM133.458 26.6516L123.755 86.2766L143.495 89.489L153.198 29.864L133.458 26.6516ZM133.625 97.8828H152.961V77.8828H133.625V97.8828ZM220.672 115.445L227.654 122.604L227.655 122.603L220.672 115.445ZM181.086 121H171.086V131H181.086V121ZM181.086 10.9609V0.960938H171.086V10.9609H181.086ZM220.742 16.5859L213.715 23.7008L213.738 23.7229L213.76 23.7448L220.742 16.5859ZM213.219 22.9844L206.148 30.0554L206.221 30.1291L206.296 30.2012L213.219 22.9844ZM190.859 19.6094V9.60938H180.859V19.6094H190.859ZM190.859 112.352H180.859V122.352H190.859V112.352ZM213.078 109.117L219.849 116.477L219.855 116.471L213.078 109.117ZM216.438 101.102C216.438 104.465 215.434 106.585 213.689 108.287L227.655 122.603C233.597 116.806 236.438 109.363 236.438 101.102H216.438ZM213.69 108.286C211.948 109.985 209.736 111 206.258 111V131C214.405 131 221.802 128.312 227.654 122.604L213.69 108.286ZM206.258 111H181.086V131H206.258V111ZM191.086 121V10.9609H171.086V121H191.086ZM181.086 20.9609H206.258V0.960938H181.086V20.9609ZM206.258 20.9609C209.769 20.9609 211.982 21.989 213.715 23.7008L227.769 9.47109C221.909 3.6829 214.465 0.960938 206.258 0.960938V20.9609ZM213.76 23.7448C215.432 25.3755 216.438 27.4569 216.438 30.8594H236.438C236.438 22.6369 233.646 15.2026 227.724 9.42704L213.76 23.7448ZM216.438 30.8594V101.102H236.438V30.8594H216.438ZM226.664 100.117V31.7031H206.664V100.117H226.664ZM226.664 31.7031C226.664 25.7697 224.675 20.1169 220.141 15.7676L206.296 30.2012C206.427 30.3259 206.467 30.4015 206.503 30.4915C206.549 30.6078 206.664 30.964 206.664 31.7031H226.664ZM220.29 15.9133C215.907 11.5304 210.303 9.60938 204.43 9.60938V29.6094C205.775 29.6094 206.031 29.9384 206.148 30.0554L220.29 15.9133ZM204.43 9.60938H190.859V29.6094H204.43V9.60938ZM180.859 19.6094V112.352H200.859V19.6094H180.859ZM190.859 122.352H203.867V102.352H190.859V122.352ZM203.867 122.352C209.662 122.352 215.315 120.648 219.849 116.476L206.308 101.758C206.154 101.899 205.666 102.352 203.867 102.352V122.352ZM219.855 116.471C224.649 112.053 226.664 106.195 226.664 100.117H206.664C206.664 100.967 206.532 101.379 206.478 101.513C206.438 101.614 206.404 101.669 206.301 101.764L219.855 116.471ZM254 121V131H264V121H254ZM244.227 121H234.227V131H244.227V121ZM244.227 10.9609V0.960938H234.227V10.9609H244.227ZM254 10.9609H264V0.960938H254V10.9609ZM254 111H244.227V131H254V111ZM254.227 121V10.9609H234.227V121H254.227ZM244.227 20.9609H254V0.960938H244.227V20.9609ZM244 10.9609V121H264V10.9609H244ZM317.703 121V131H327.703V121H317.703ZM310.953 121L301.554 124.413L303.946 131H310.953V121ZM281.562 40.0703L290.962 36.6568L271.562 40.0703H281.562ZM281.562 121V131H291.562V121H281.562ZM272.352 121H262.352V131H272.352V121ZM272.352 10.9609V0.960938H262.352V10.9609H272.352ZM279.664 10.9609L289.065 7.55285L286.676 0.960938H279.664V10.9609ZM308.492 90.4844L299.091 93.8925L318.492 90.4844H308.492ZM308.492 10.9609V0.960938H298.492V10.9609H308.492ZM317.703 10.9609H327.703V0.960938H317.703V10.9609ZM317.703 111H310.953V131H317.703V111ZM320.352 117.587L290.962 36.6568L272.163 43.4838L301.554 124.413L320.352 117.587ZM271.562 40.0703V121H291.562V40.0703H271.562ZM281.562 111H272.352V131H281.562V111ZM282.352 121V10.9609H262.352V121H282.352ZM272.352 20.9609H279.664V0.960938H272.352V20.9609ZM270.263 14.369L299.091 93.8925L317.894 87.0763L289.065 7.55285L270.263 14.369ZM318.492 90.4844V10.9609H298.492V90.4844H318.492ZM308.492 20.9609H317.703V0.960938H308.492V20.9609ZM307.703 10.9609V121H327.703V10.9609H307.703ZM379.859 44.3594V54.3594H389.859V44.3594H379.859ZM370.016 44.3594H360.016V54.3594H370.016V44.3594ZM370.016 19.6094H380.016V9.60938H370.016V19.6094ZM345.125 19.6094V9.60938H335.125V19.6094H345.125ZM345.125 112.352H335.125V122.352H345.125V112.352ZM370.016 112.352V122.352H380.016V112.352H370.016ZM370.016 74.3125H380.016V64.3125H370.016V74.3125ZM358.273 74.3125H348.273V84.3125H358.273V74.3125ZM358.273 65.875V55.875H348.273V65.875H358.273ZM379.859 65.875H389.859V55.875H379.859V65.875ZM369.859 113.195C369.859 113.282 369.848 113.078 369.99 112.711C370.14 112.323 370.374 111.984 370.609 111.749L384.751 125.891C388.308 122.335 389.859 117.803 389.859 113.195H369.859ZM370.609 111.749C370.843 111.515 371.182 111.281 371.57 111.131C371.937 110.989 372.141 111 372.055 111V131C376.662 131 381.194 129.448 384.751 125.891L370.609 111.749ZM372.055 111H343.156V131H372.055V111ZM343.156 111C343.07 111 343.274 110.989 343.641 111.131C344.029 111.281 344.368 111.515 344.602 111.749L330.46 125.891C334.017 129.448 338.549 131 343.156 131V111ZM344.602 111.749C344.837 111.984 345.07 112.323 345.221 112.711C345.363 113.078 345.352 113.282 345.352 113.195H325.352C325.352 117.803 326.903 122.335 330.46 125.891L344.602 111.749ZM345.352 113.195V18.7656H325.352V113.195H345.352ZM345.352 18.7656C345.352 18.679 345.363 18.8833 345.221 19.2499C345.07 19.6382 344.837 19.9771 344.602 20.2117L330.46 6.06956C326.903 9.62636 325.352 14.1579 325.352 18.7656H345.352ZM344.602 20.2117C344.368 20.4463 344.029 20.6798 343.641 20.8303C343.274 20.9723 343.07 20.9609 343.156 20.9609V0.960938C338.549 0.960938 334.017 2.51275 330.46 6.06956L344.602 20.2117ZM343.156 20.9609H372.055V0.960938H343.156V20.9609ZM372.055 20.9609C372.141 20.9609 371.937 20.9723 371.57 20.8303C371.182 20.6798 370.843 20.4463 370.609 20.2117L384.751 6.06956C381.194 2.51275 376.662 0.960938 372.055 0.960938V20.9609ZM370.609 20.2117C370.374 19.9771 370.14 19.6382 369.99 19.2499C369.848 18.8833 369.859 18.679 369.859 18.7656H389.859C389.859 14.1579 388.308 9.62636 384.751 6.06956L370.609 20.2117ZM369.859 18.7656V44.3594H389.859V18.7656H369.859ZM379.859 34.3594H370.016V54.3594H379.859V34.3594ZM380.016 44.3594V19.6094H360.016V44.3594H380.016ZM370.016 9.60938H345.125V29.6094H370.016V9.60938ZM335.125 19.6094V112.352H355.125V19.6094H335.125ZM345.125 122.352H370.016V102.352H345.125V122.352ZM380.016 112.352V74.3125H360.016V112.352H380.016ZM370.016 64.3125H358.273V84.3125H370.016V64.3125ZM368.273 74.3125V65.875H348.273V74.3125H368.273ZM358.273 75.875H379.859V55.875H358.273V75.875ZM369.859 65.875V113.195H389.859V65.875H369.859ZM405.875 121V131H415.875V121H405.875ZM395.188 121H385.188V131H395.188V121ZM395.188 108.625V98.625H385.188V108.625H395.188ZM405.875 108.625H415.875V98.625H405.875V108.625ZM405.875 111H395.188V131H405.875V111ZM405.188 121V108.625H385.188V121H405.188ZM395.188 118.625H405.875V98.625H395.188V118.625ZM395.875 108.625V121H415.875V108.625H395.875ZM429.781 121V131H439.781V121H429.781ZM419.094 121H409.094V131H419.094V121ZM419.094 108.625V98.625H409.094V108.625H419.094ZM429.781 108.625H439.781V98.625H429.781V108.625ZM429.781 111H419.094V131H429.781V111ZM429.094 121V108.625H409.094V121H429.094ZM419.094 118.625H429.781V98.625H419.094V118.625ZM419.781 108.625V121H439.781V108.625H419.781ZM453.688 121V131H463.688V121H453.688ZM443 121H433V131H443V121ZM443 108.625V98.625H433V108.625H443ZM453.688 108.625H463.688V98.625H453.688V108.625ZM453.688 111H443V131H453.688V111ZM453 121V108.625H433V121H453ZM443 118.625H453.688V98.625H443V118.625ZM443.688 108.625V121H463.688V108.625H443.688Z" fill="black"/>
</g>
<defs>
<linearGradient id="paint0_linear" x1="2.00001" y1="13.5" x2="387" y2="121" gradientUnits="userSpaceOnUse">
<stop stop-color="#04F748"/>
<stop offset="1" stop-color="#04F7E8"/>
</linearGradient>
</defs>
</svg>
